<svg xmlns="http://www.w3.org/2000/svg" width="1080" height="480" viewBox="0 0 1080 480" font-family="ui-sans-serif, system-ui, sans-serif" font-size="12">
<rect width="1080" height="480" fill="#ffffff"/>
<text x="84" y="26" font-size="17" font-weight="600" fill="#1f2328">Per-second throughput and p99 — 10 users (run-2-current)</text>
<line x1="84" y1="416.0" x2="830" y2="416.0" stroke="#eaeef2"/>
<text x="76" y="420.0" text-anchor="end" fill="#57606a">0</text>
<line x1="84" y1="344.8" x2="830" y2="344.8" stroke="#eaeef2"/>
<text x="76" y="348.8" text-anchor="end" fill="#57606a">5k</text>
<line x1="84" y1="273.6" x2="830" y2="273.6" stroke="#eaeef2"/>
<text x="76" y="277.6" text-anchor="end" fill="#57606a">10k</text>
<line x1="84" y1="202.4" x2="830" y2="202.4" stroke="#eaeef2"/>
<text x="76" y="206.4" text-anchor="end" fill="#57606a">15k</text>
<line x1="84" y1="131.2" x2="830" y2="131.2" stroke="#eaeef2"/>
<text x="76" y="135.2" text-anchor="end" fill="#57606a">20k</text>
<line x1="84" y1="60.0" x2="830" y2="60.0" stroke="#eaeef2"/>
<text x="76" y="64.0" text-anchor="end" fill="#57606a">25k</text>
<line x1="84.0" y1="60" x2="84.0" y2="416" stroke="#f0f2f4"/>
<text x="84.0" y="434" text-anchor="middle" fill="#57606a">0</text>
<line x1="212.6" y1="60" x2="212.6" y2="416" stroke="#f0f2f4"/>
<text x="212.6" y="434" text-anchor="middle" fill="#57606a">5</text>
<line x1="341.2" y1="60" x2="341.2" y2="416" stroke="#f0f2f4"/>
<text x="341.2" y="434" text-anchor="middle" fill="#57606a">10</text>
<line x1="469.9" y1="60" x2="469.9" y2="416" stroke="#f0f2f4"/>
<text x="469.9" y="434" text-anchor="middle" fill="#57606a">15</text>
<line x1="598.5" y1="60" x2="598.5" y2="416" stroke="#f0f2f4"/>
<text x="598.5" y="434" text-anchor="middle" fill="#57606a">20</text>
<line x1="727.1" y1="60" x2="727.1" y2="416" stroke="#f0f2f4"/>
<text x="727.1" y="434" text-anchor="middle" fill="#57606a">25</text>
<line x1="855.7" y1="60" x2="855.7" y2="416" stroke="#f0f2f4"/>
<text x="855.7" y="434" text-anchor="middle" fill="#57606a">30</text>
<rect x="84" y="60" width="746" height="356" fill="none" stroke="#d0d7de"/>
<text x="457.0" y="466" text-anchor="middle" fill="#57606a">second of the measured window</text>
<text x="18" y="238.0" text-anchor="middle" fill="#57606a" transform="rotate(-90 18 238.0)">ops/s · ms</text>
<path d="M84.0,87.3 L109.7,100.7 L135.4,181.1 L161.2,115.7 L186.9,123.5 L212.6,168.1 L238.3,157.7 L264.1,131.2 L289.8,138.8 L315.5,214.4 L341.2,154.1 L367.0,160.5 L392.7,223.7 L418.4,166.8 L444.1,166.6 L469.9,227.8 L495.6,179.8 L521.3,180.0 L547.0,253.3 L572.8,185.4 L598.5,206.3 L624.2,223.3 L649.9,193.4 L675.7,386.2 L701.4,416.0 L727.1,181.0 L752.8,78.2 L778.6,88.2 L804.3,102.7 L830.0,330.9" fill="none" stroke="#c99700" stroke-width="2"/>
<circle cx="84.0" cy="87.3" r="3" fill="#c99700"><title>ops/s: 0 → 23082</title></circle>
<circle cx="109.7" cy="100.7" r="3" fill="#c99700"><title>ops/s: 1 → 22145</title></circle>
<circle cx="135.4" cy="181.1" r="3" fill="#c99700"><title>ops/s: 2 → 16493</title></circle>
<circle cx="161.2" cy="115.7" r="3" fill="#c99700"><title>ops/s: 3 → 21087</title></circle>
<circle cx="186.9" cy="123.5" r="3" fill="#c99700"><title>ops/s: 4 → 20542</title></circle>
<circle cx="212.6" cy="168.1" r="3" fill="#c99700"><title>ops/s: 5 → 17408</title></circle>
<circle cx="238.3" cy="157.7" r="3" fill="#c99700"><title>ops/s: 6 → 18136</title></circle>
<circle cx="264.1" cy="131.2" r="3" fill="#c99700"><title>ops/s: 7 → 19999</title></circle>
<circle cx="289.8" cy="138.8" r="3" fill="#c99700"><title>ops/s: 8 → 19464</title></circle>
<circle cx="315.5" cy="214.4" r="3" fill="#c99700"><title>ops/s: 9 → 14160</title></circle>
<circle cx="341.2" cy="154.1" r="3" fill="#c99700"><title>ops/s: 10 → 18392</title></circle>
<circle cx="367.0" cy="160.5" r="3" fill="#c99700"><title>ops/s: 11 → 17940</title></circle>
<circle cx="392.7" cy="223.7" r="3" fill="#c99700"><title>ops/s: 12 → 13504</title></circle>
<circle cx="418.4" cy="166.8" r="3" fill="#c99700"><title>ops/s: 13 → 17498</title></circle>
<circle cx="444.1" cy="166.6" r="3" fill="#c99700"><title>ops/s: 14 → 17515</title></circle>
<circle cx="469.9" cy="227.8" r="3" fill="#c99700"><title>ops/s: 15 → 13215</title></circle>
<circle cx="495.6" cy="179.8" r="3" fill="#c99700"><title>ops/s: 16 → 16585</title></circle>
<circle cx="521.3" cy="180.0" r="3" fill="#c99700"><title>ops/s: 17 → 16573</title></circle>
<circle cx="547.0" cy="253.3" r="3" fill="#c99700"><title>ops/s: 18 → 11427</title></circle>
<circle cx="572.8" cy="185.4" r="3" fill="#c99700"><title>ops/s: 19 → 16195</title></circle>
<circle cx="598.5" cy="206.3" r="3" fill="#c99700"><title>ops/s: 20 → 14727</title></circle>
<circle cx="624.2" cy="223.3" r="3" fill="#c99700"><title>ops/s: 21 → 13533</title></circle>
<circle cx="649.9" cy="193.4" r="3" fill="#c99700"><title>ops/s: 22 → 15633</title></circle>
<circle cx="675.7" cy="386.2" r="3" fill="#c99700"><title>ops/s: 23 → 2093</title></circle>
<circle cx="701.4" cy="416.0" r="3" fill="#c99700"><title>ops/s: 24 → 0</title></circle>
<circle cx="727.1" cy="181.0" r="3" fill="#c99700"><title>ops/s: 25 → 16504</title></circle>
<circle cx="752.8" cy="78.2" r="3" fill="#c99700"><title>ops/s: 26 → 23719</title></circle>
<circle cx="778.6" cy="88.2" r="3" fill="#c99700"><title>ops/s: 27 → 23018</title></circle>
<circle cx="804.3" cy="102.7" r="3" fill="#c99700"><title>ops/s: 28 → 22002</title></circle>
<circle cx="830.0" cy="330.9" r="3" fill="#c99700"><title>ops/s: 29 → 5974</title></circle>
<line x1="848" y1="68" x2="870" y2="68" stroke="#c99700" stroke-width="2"/>
<text x="876" y="72" fill="#1f2328">ops/s</text>
<path d="M84.0,415.9 L109.7,415.9 L135.4,415.9 L161.2,415.9 L186.9,415.9 L212.6,415.9 L238.3,415.9 L264.1,415.9 L289.8,415.9 L315.5,415.9 L341.2,415.9 L367.0,415.9 L392.7,415.9 L418.4,415.9 L444.1,415.9 L469.9,415.9 L495.6,415.9 L521.3,415.9 L547.0,415.9 L572.8,415.9 L598.5,415.9 L624.2,415.9 L649.9,415.9 L675.7,415.8 L727.1,416.0 L752.8,415.9 L778.6,415.9 L804.3,415.9 L830.0,415.9" fill="none" stroke="#0969da" stroke-width="2" stroke-dasharray="6 4"/>
<circle cx="84.0" cy="415.9" r="3" fill="#0969da"><title>p99 ms: 0 → 3.693</title></circle>
<circle cx="109.7" cy="415.9" r="3" fill="#0969da"><title>p99 ms: 1 → 4.004</title></circle>
<circle cx="135.4" cy="415.9" r="3" fill="#0969da"><title>p99 ms: 2 → 4.717</title></circle>
<circle cx="161.2" cy="415.9" r="3" fill="#0969da"><title>p99 ms: 3 → 4.359</title></circle>
<circle cx="186.9" cy="415.9" r="3" fill="#0969da"><title>p99 ms: 4 → 4.555</title></circle>
<circle cx="212.6" cy="415.9" r="3" fill="#0969da"><title>p99 ms: 5 → 5.298</title></circle>
<circle cx="238.3" cy="415.9" r="3" fill="#0969da"><title>p99 ms: 6 → 4.791</title></circle>
<circle cx="264.1" cy="415.9" r="3" fill="#0969da"><title>p99 ms: 7 → 4.3</title></circle>
<circle cx="289.8" cy="415.9" r="3" fill="#0969da"><title>p99 ms: 8 → 5.214</title></circle>
<circle cx="315.5" cy="415.9" r="3" fill="#0969da"><title>p99 ms: 9 → 6.472</title></circle>
<circle cx="341.2" cy="415.9" r="3" fill="#0969da"><title>p99 ms: 10 → 5.782</title></circle>
<circle cx="367.0" cy="415.9" r="3" fill="#0969da"><title>p99 ms: 11 → 6.11</title></circle>
<circle cx="392.7" cy="415.9" r="3" fill="#0969da"><title>p99 ms: 12 → 7.256</title></circle>
<circle cx="418.4" cy="415.9" r="3" fill="#0969da"><title>p99 ms: 13 → 5.819</title></circle>
<circle cx="444.1" cy="415.9" r="3" fill="#0969da"><title>p99 ms: 14 → 5.54</title></circle>
<circle cx="469.9" cy="415.9" r="3" fill="#0969da"><title>p99 ms: 15 → 7.47</title></circle>
<circle cx="495.6" cy="415.9" r="3" fill="#0969da"><title>p99 ms: 16 → 7.327</title></circle>
<circle cx="521.3" cy="415.9" r="3" fill="#0969da"><title>p99 ms: 17 → 5.883</title></circle>
<circle cx="547.0" cy="415.9" r="3" fill="#0969da"><title>p99 ms: 18 → 7.884</title></circle>
<circle cx="572.8" cy="415.9" r="3" fill="#0969da"><title>p99 ms: 19 → 7.746</title></circle>
<circle cx="598.5" cy="415.9" r="3" fill="#0969da"><title>p99 ms: 20 → 7.808</title></circle>
<circle cx="624.2" cy="415.9" r="3" fill="#0969da"><title>p99 ms: 21 → 7.736</title></circle>
<circle cx="649.9" cy="415.9" r="3" fill="#0969da"><title>p99 ms: 22 → 8.631</title></circle>
<circle cx="675.7" cy="415.8" r="3" fill="#0969da"><title>p99 ms: 23 → 16.07</title></circle>
<circle cx="727.1" cy="416.0" r="3" fill="#0969da"><title>p99 ms: 25 → 3.435</title></circle>
<circle cx="752.8" cy="415.9" r="3" fill="#0969da"><title>p99 ms: 26 → 3.616</title></circle>
<circle cx="778.6" cy="415.9" r="3" fill="#0969da"><title>p99 ms: 27 → 3.731</title></circle>
<circle cx="804.3" cy="415.9" r="3" fill="#0969da"><title>p99 ms: 28 → 4.09</title></circle>
<circle cx="830.0" cy="415.9" r="3" fill="#0969da"><title>p99 ms: 29 → 4.194</title></circle>
<line x1="848" y1="84" x2="870" y2="84" stroke="#0969da" stroke-width="2" stroke-dasharray="6 4"/>
<text x="876" y="88" fill="#1f2328">p99 ms</text>
</svg>