<svg xmlns="http://www.w3.org/2000/svg" width="1080" height="480" viewBox="0 0 1080 480" font-family="ui-sans-serif, system-ui, sans-serif" font-size="12">
<rect width="1080" height="480" fill="#ffffff"/>
<text x="84" y="26" font-size="17" font-weight="600" fill="#1f2328">Per-second throughput and p99 — 500 users (saas-r3-sidecar)</text>
<line x1="84" y1="416.0" x2="830" y2="416.0" stroke="#eaeef2"/>
<text x="76" y="420.0" text-anchor="end" fill="#57606a">0</text>
<line x1="84" y1="356.7" x2="830" y2="356.7" stroke="#eaeef2"/>
<text x="76" y="360.7" text-anchor="end" fill="#57606a">2,500</text>
<line x1="84" y1="297.3" x2="830" y2="297.3" stroke="#eaeef2"/>
<text x="76" y="301.3" text-anchor="end" fill="#57606a">5k</text>
<line x1="84" y1="238.0" x2="830" y2="238.0" stroke="#eaeef2"/>
<text x="76" y="242.0" text-anchor="end" fill="#57606a">7,500</text>
<line x1="84" y1="178.7" x2="830" y2="178.7" stroke="#eaeef2"/>
<text x="76" y="182.7" text-anchor="end" fill="#57606a">10k</text>
<line x1="84" y1="119.3" x2="830" y2="119.3" stroke="#eaeef2"/>
<text x="76" y="123.3" text-anchor="end" fill="#57606a">12.5k</text>
<line x1="84" y1="60.0" x2="830" y2="60.0" stroke="#eaeef2"/>
<text x="76" y="64.0" text-anchor="end" fill="#57606a">15k</text>
<line x1="84.0" y1="60" x2="84.0" y2="416" stroke="#f0f2f4"/>
<text x="84.0" y="434" text-anchor="middle" fill="#57606a">0</text>
<line x1="212.6" y1="60" x2="212.6" y2="416" stroke="#f0f2f4"/>
<text x="212.6" y="434" text-anchor="middle" fill="#57606a">5</text>
<line x1="341.2" y1="60" x2="341.2" y2="416" stroke="#f0f2f4"/>
<text x="341.2" y="434" text-anchor="middle" fill="#57606a">10</text>
<line x1="469.9" y1="60" x2="469.9" y2="416" stroke="#f0f2f4"/>
<text x="469.9" y="434" text-anchor="middle" fill="#57606a">15</text>
<line x1="598.5" y1="60" x2="598.5" y2="416" stroke="#f0f2f4"/>
<text x="598.5" y="434" text-anchor="middle" fill="#57606a">20</text>
<line x1="727.1" y1="60" x2="727.1" y2="416" stroke="#f0f2f4"/>
<text x="727.1" y="434" text-anchor="middle" fill="#57606a">25</text>
<line x1="855.7" y1="60" x2="855.7" y2="416" stroke="#f0f2f4"/>
<text x="855.7" y="434" text-anchor="middle" fill="#57606a">30</text>
<rect x="84" y="60" width="746" height="356" fill="none" stroke="#d0d7de"/>
<text x="457.0" y="466" text-anchor="middle" fill="#57606a">second of the measured window</text>
<text x="18" y="238.0" text-anchor="middle" fill="#57606a" transform="rotate(-90 18 238.0)">ops/s · ms</text>
<path d="M84.0,103.7 L109.7,86.1 L135.4,109.1 L161.2,117.6 L186.9,115.1 L212.6,91.5 L238.3,107.4 L264.1,98.0 L289.8,116.6 L315.5,109.3 L341.2,108.8 L367.0,107.8 L392.7,152.8 L418.4,108.5 L444.1,95.6 L469.9,141.0 L495.6,139.6 L521.3,141.2 L547.0,158.7 L572.8,114.2 L598.5,113.0 L624.2,109.8 L649.9,127.9 L675.7,162.4 L701.4,127.5 L727.1,122.0 L752.8,247.2 L778.6,416.0 L804.3,416.0 L830.0,416.0" fill="none" stroke="#c99700" stroke-width="2"/>
<circle cx="84.0" cy="103.7" r="3" fill="#c99700"><title>ops/s: 0 → 13158</title></circle>
<circle cx="109.7" cy="86.1" r="3" fill="#c99700"><title>ops/s: 1 → 13901</title></circle>
<circle cx="135.4" cy="109.1" r="3" fill="#c99700"><title>ops/s: 2 → 12932</title></circle>
<circle cx="161.2" cy="117.6" r="3" fill="#c99700"><title>ops/s: 3 → 12574</title></circle>
<circle cx="186.9" cy="115.1" r="3" fill="#c99700"><title>ops/s: 4 → 12679</title></circle>
<circle cx="212.6" cy="91.5" r="3" fill="#c99700"><title>ops/s: 5 → 13674</title></circle>
<circle cx="238.3" cy="107.4" r="3" fill="#c99700"><title>ops/s: 6 → 13004</title></circle>
<circle cx="264.1" cy="98.0" r="3" fill="#c99700"><title>ops/s: 7 → 13397</title></circle>
<circle cx="289.8" cy="116.6" r="3" fill="#c99700"><title>ops/s: 8 → 12617</title></circle>
<circle cx="315.5" cy="109.3" r="3" fill="#c99700"><title>ops/s: 9 → 12922</title></circle>
<circle cx="341.2" cy="108.8" r="3" fill="#c99700"><title>ops/s: 10 → 12942</title></circle>
<circle cx="367.0" cy="107.8" r="3" fill="#c99700"><title>ops/s: 11 → 12988</title></circle>
<circle cx="392.7" cy="152.8" r="3" fill="#c99700"><title>ops/s: 12 → 11090</title></circle>
<circle cx="418.4" cy="108.5" r="3" fill="#c99700"><title>ops/s: 13 → 12957</title></circle>
<circle cx="444.1" cy="95.6" r="3" fill="#c99700"><title>ops/s: 14 → 13502</title></circle>
<circle cx="469.9" cy="141.0" r="3" fill="#c99700"><title>ops/s: 15 → 11588</title></circle>
<circle cx="495.6" cy="139.6" r="3" fill="#c99700"><title>ops/s: 16 → 11644</title></circle>
<circle cx="521.3" cy="141.2" r="3" fill="#c99700"><title>ops/s: 17 → 11578</title></circle>
<circle cx="547.0" cy="158.7" r="3" fill="#c99700"><title>ops/s: 18 → 10841</title></circle>
<circle cx="572.8" cy="114.2" r="3" fill="#c99700"><title>ops/s: 19 → 12716</title></circle>
<circle cx="598.5" cy="113.0" r="3" fill="#c99700"><title>ops/s: 20 → 12766</title></circle>
<circle cx="624.2" cy="109.8" r="3" fill="#c99700"><title>ops/s: 21 → 12902</title></circle>
<circle cx="649.9" cy="127.9" r="3" fill="#c99700"><title>ops/s: 22 → 12138</title></circle>
<circle cx="675.7" cy="162.4" r="3" fill="#c99700"><title>ops/s: 23 → 10686</title></circle>
<circle cx="701.4" cy="127.5" r="3" fill="#c99700"><title>ops/s: 24 → 12157</title></circle>
<circle cx="727.1" cy="122.0" r="3" fill="#c99700"><title>ops/s: 25 → 12386</title></circle>
<circle cx="752.8" cy="247.2" r="3" fill="#c99700"><title>ops/s: 26 → 7114</title></circle>
<circle cx="778.6" cy="416.0" r="3" fill="#c99700"><title>ops/s: 27 → 0</title></circle>
<circle cx="804.3" cy="416.0" r="3" fill="#c99700"><title>ops/s: 28 → 0</title></circle>
<circle cx="830.0" cy="416.0" r="3" fill="#c99700"><title>ops/s: 29 → 0</title></circle>
<line x1="848" y1="68" x2="870" y2="68" stroke="#c99700" stroke-width="2"/>
<text x="876" y="72" fill="#1f2328">ops/s</text>
<path d="M84.0,411.8 L109.7,411.3 L135.4,410.8 L161.2,411.2 L186.9,411.1 L212.6,411.9 L238.3,411.4 L264.1,411.5 L289.8,411.3 L315.5,411.4 L341.2,411.3 L367.0,411.4 L392.7,409.5 L418.4,411.0 L444.1,411.2 L469.9,410.4 L495.6,411.1 L521.3,411.4 L547.0,408.9 L572.8,411.1 L598.5,411.0 L624.2,410.7 L649.9,410.9 L675.7,408.2 L701.4,410.7 L727.1,410.8 L752.8,330.9" fill="none" stroke="#0969da" stroke-width="2" stroke-dasharray="6 4"/>
<circle cx="84.0" cy="411.8" r="3" fill="#0969da"><title>p99 ms: 0 → 175.268</title></circle>
<circle cx="109.7" cy="411.3" r="3" fill="#0969da"><title>p99 ms: 1 → 196.05</title></circle>
<circle cx="135.4" cy="410.8" r="3" fill="#0969da"><title>p99 ms: 2 → 218</title></circle>
<circle cx="161.2" cy="411.2" r="3" fill="#0969da"><title>p99 ms: 3 → 202.499</title></circle>
<circle cx="186.9" cy="411.1" r="3" fill="#0969da"><title>p99 ms: 4 → 207.839</title></circle>
<circle cx="212.6" cy="411.9" r="3" fill="#0969da"><title>p99 ms: 5 → 171.451</title></circle>
<circle cx="238.3" cy="411.4" r="3" fill="#0969da"><title>p99 ms: 6 → 192.398</title></circle>
<circle cx="264.1" cy="411.5" r="3" fill="#0969da"><title>p99 ms: 7 → 191.173</title></circle>
<circle cx="289.8" cy="411.3" r="3" fill="#0969da"><title>p99 ms: 8 → 198.557</title></circle>
<circle cx="315.5" cy="411.4" r="3" fill="#0969da"><title>p99 ms: 9 → 192.076</title></circle>
<circle cx="341.2" cy="411.3" r="3" fill="#0969da"><title>p99 ms: 10 → 199.583</title></circle>
<circle cx="367.0" cy="411.4" r="3" fill="#0969da"><title>p99 ms: 11 → 193.664</title></circle>
<circle cx="392.7" cy="409.5" r="3" fill="#0969da"><title>p99 ms: 12 → 275.245</title></circle>
<circle cx="418.4" cy="411.0" r="3" fill="#0969da"><title>p99 ms: 13 → 210.221</title></circle>
<circle cx="444.1" cy="411.2" r="3" fill="#0969da"><title>p99 ms: 14 → 200.516</title></circle>
<circle cx="469.9" cy="410.4" r="3" fill="#0969da"><title>p99 ms: 15 → 237.921</title></circle>
<circle cx="495.6" cy="411.1" r="3" fill="#0969da"><title>p99 ms: 16 → 206.25</title></circle>
<circle cx="521.3" cy="411.4" r="3" fill="#0969da"><title>p99 ms: 17 → 194.104</title></circle>
<circle cx="547.0" cy="408.9" r="3" fill="#0969da"><title>p99 ms: 18 → 299.402</title></circle>
<circle cx="572.8" cy="411.1" r="3" fill="#0969da"><title>p99 ms: 19 → 205.29</title></circle>
<circle cx="598.5" cy="411.0" r="3" fill="#0969da"><title>p99 ms: 20 → 210.066</title></circle>
<circle cx="624.2" cy="410.7" r="3" fill="#0969da"><title>p99 ms: 21 → 223.678</title></circle>
<circle cx="649.9" cy="410.9" r="3" fill="#0969da"><title>p99 ms: 22 → 212.807</title></circle>
<circle cx="675.7" cy="408.2" r="3" fill="#0969da"><title>p99 ms: 23 → 329.306</title></circle>
<circle cx="701.4" cy="410.7" r="3" fill="#0969da"><title>p99 ms: 24 → 225.297</title></circle>
<circle cx="727.1" cy="410.8" r="3" fill="#0969da"><title>p99 ms: 25 → 218.525</title></circle>
<circle cx="752.8" cy="330.9" r="3" fill="#0969da"><title>p99 ms: 26 → 3583.96</title></circle>
<line x1="848" y1="84" x2="870" y2="84" stroke="#0969da" stroke-width="2" stroke-dasharray="6 4"/>
<text x="876" y="88" fill="#1f2328">p99 ms</text>
</svg>