<svg xmlns="http://www.w3.org/2000/svg" width="1080" height="480" viewBox="0 0 1080 480" font-family="ui-sans-serif, system-ui, sans-serif" font-size="12">
<rect width="1080" height="480" fill="#ffffff"/>
<text x="84" y="26" font-size="17" font-weight="600" fill="#1f2328">CPU used (cores) during the measured window</text>
<line x1="84" y1="416.0" x2="830" y2="416.0" stroke="#eaeef2"/>
<text x="76" y="420.0" text-anchor="end" fill="#57606a">0</text>
<line x1="84" y1="356.7" x2="830" y2="356.7" stroke="#eaeef2"/>
<text x="76" y="360.7" text-anchor="end" fill="#57606a">1</text>
<line x1="84" y1="297.3" x2="830" y2="297.3" stroke="#eaeef2"/>
<text x="76" y="301.3" text-anchor="end" fill="#57606a">2</text>
<line x1="84" y1="238.0" x2="830" y2="238.0" stroke="#eaeef2"/>
<text x="76" y="242.0" text-anchor="end" fill="#57606a">3</text>
<line x1="84" y1="178.7" x2="830" y2="178.7" stroke="#eaeef2"/>
<text x="76" y="182.7" text-anchor="end" fill="#57606a">4</text>
<line x1="84" y1="119.3" x2="830" y2="119.3" stroke="#eaeef2"/>
<text x="76" y="123.3" text-anchor="end" fill="#57606a">5</text>
<line x1="84" y1="60.0" x2="830" y2="60.0" stroke="#eaeef2"/>
<text x="76" y="64.0" text-anchor="end" fill="#57606a">6</text>
<line x1="84.0" y1="60" x2="84.0" y2="416" stroke="#f0f2f4"/>
<text x="84.0" y="434" text-anchor="middle" fill="#57606a">10</text>
<line x1="523.1" y1="60" x2="523.1" y2="416" stroke="#f0f2f4"/>
<text x="523.1" y="434" text-anchor="middle" fill="#57606a">100</text>
<line x1="830.0" y1="60" x2="830.0" y2="416" stroke="#f0f2f4"/>
<text x="830.0" y="434" text-anchor="middle" fill="#57606a">500</text>
<rect x="84" y="60" width="746" height="356" fill="none" stroke="#d0d7de"/>
<text x="457.0" y="466" text-anchor="middle" fill="#57606a">concurrent users (log)</text>
<text x="18" y="238.0" text-anchor="middle" fill="#57606a" transform="rotate(-90 18 238.0)">cores</text>
<path d="M84.0,216.6 L523.1,130.6 L830.0,89.1" fill="none" stroke="#c99700" stroke-width="2"/>
<circle cx="84.0" cy="216.6" r="3" fill="#c99700"><title>sweep-before server: 10 → 3.36</title></circle>
<circle cx="523.1" cy="130.6" r="3" fill="#c99700"><title>sweep-before server: 100 → 4.81</title></circle>
<circle cx="830.0" cy="89.1" r="3" fill="#c99700"><title>sweep-before server: 500 → 5.51</title></circle>
<line x1="848" y1="68" x2="870" y2="68" stroke="#c99700" stroke-width="2"/>
<text x="876" y="72" fill="#1f2328">sweep-before server</text>
<path d="M84.0,326.4 L523.1,317.5 L830.0,294.4" fill="none" stroke="#0969da" stroke-width="2" stroke-dasharray="6 4"/>
<circle cx="84.0" cy="326.4" r="3" fill="#0969da"><title>sweep-before load generators: 10 → 1.51</title></circle>
<circle cx="523.1" cy="317.5" r="3" fill="#0969da"><title>sweep-before load generators: 100 → 1.66</title></circle>
<circle cx="830.0" cy="294.4" r="3" fill="#0969da"><title>sweep-before load generators: 500 → 2.05</title></circle>
<line x1="848" y1="84" x2="870" y2="84" stroke="#0969da" stroke-width="2" stroke-dasharray="6 4"/>
<text x="876" y="88" fill="#1f2328">sweep-before load generators</text>
</svg>