<svg xmlns="http://www.w3.org/2000/svg" width="1080" height="480" viewBox="0 0 1080 480" font-family="ui-sans-serif, system-ui, sans-serif" font-size="12">
<rect width="1080" height="480" fill="#ffffff"/>
<text x="84" y="26" font-size="17" font-weight="600" fill="#1f2328">Per-second throughput and p99 — 100 users (sqlite-2)</text>
<line x1="84" y1="416.0" x2="830" y2="416.0" stroke="#eaeef2"/>
<text x="76" y="420.0" text-anchor="end" fill="#57606a">0</text>
<line x1="84" y1="356.7" x2="830" y2="356.7" stroke="#eaeef2"/>
<text x="76" y="360.7" text-anchor="end" fill="#57606a">5k</text>
<line x1="84" y1="297.3" x2="830" y2="297.3" stroke="#eaeef2"/>
<text x="76" y="301.3" text-anchor="end" fill="#57606a">10k</text>
<line x1="84" y1="238.0" x2="830" y2="238.0" stroke="#eaeef2"/>
<text x="76" y="242.0" text-anchor="end" fill="#57606a">15k</text>
<line x1="84" y1="178.7" x2="830" y2="178.7" stroke="#eaeef2"/>
<text x="76" y="182.7" text-anchor="end" fill="#57606a">20k</text>
<line x1="84" y1="119.3" x2="830" y2="119.3" stroke="#eaeef2"/>
<text x="76" y="123.3" text-anchor="end" fill="#57606a">25k</text>
<line x1="84" y1="60.0" x2="830" y2="60.0" stroke="#eaeef2"/>
<text x="76" y="64.0" text-anchor="end" fill="#57606a">30k</text>
<line x1="84.0" y1="60" x2="84.0" y2="416" stroke="#f0f2f4"/>
<text x="84.0" y="434" text-anchor="middle" fill="#57606a">0</text>
<line x1="182.2" y1="60" x2="182.2" y2="416" stroke="#f0f2f4"/>
<text x="182.2" y="434" text-anchor="middle" fill="#57606a">2.5</text>
<line x1="280.3" y1="60" x2="280.3" y2="416" stroke="#f0f2f4"/>
<text x="280.3" y="434" text-anchor="middle" fill="#57606a">5</text>
<line x1="378.5" y1="60" x2="378.5" y2="416" stroke="#f0f2f4"/>
<text x="378.5" y="434" text-anchor="middle" fill="#57606a">7.5</text>
<line x1="476.6" y1="60" x2="476.6" y2="416" stroke="#f0f2f4"/>
<text x="476.6" y="434" text-anchor="middle" fill="#57606a">10</text>
<line x1="574.8" y1="60" x2="574.8" y2="416" stroke="#f0f2f4"/>
<text x="574.8" y="434" text-anchor="middle" fill="#57606a">12.5</text>
<line x1="672.9" y1="60" x2="672.9" y2="416" stroke="#f0f2f4"/>
<text x="672.9" y="434" text-anchor="middle" fill="#57606a">15</text>
<line x1="771.1" y1="60" x2="771.1" y2="416" stroke="#f0f2f4"/>
<text x="771.1" y="434" text-anchor="middle" fill="#57606a">17.5</text>
<line x1="869.3" y1="60" x2="869.3" y2="416" stroke="#f0f2f4"/>
<text x="869.3" y="434" text-anchor="middle" fill="#57606a">20</text>
<rect x="84" y="60" width="746" height="356" fill="none" stroke="#d0d7de"/>
<text x="457.0" y="466" text-anchor="middle" fill="#57606a">second of the measured window</text>
<text x="18" y="238.0" text-anchor="middle" fill="#57606a" transform="rotate(-90 18 238.0)">ops/s · ms</text>
<path d="M84.0,76.1 L123.3,73.3 L162.5,87.1 L201.8,78.9 L241.1,85.6 L280.3,86.1 L319.6,92.4 L358.8,92.9 L398.1,93.2 L437.4,92.8 L476.6,99.9 L515.9,96.0 L555.2,99.0 L594.4,107.5 L633.7,101.7 L672.9,97.0 L712.2,99.9 L751.5,102.5 L790.7,97.8 L830.0,114.7" fill="none" stroke="#c99700" stroke-width="2"/>
<circle cx="84.0" cy="76.1" r="3" fill="#c99700"><title>ops/s: 0 → 28643</title></circle>
<circle cx="123.3" cy="73.3" r="3" fill="#c99700"><title>ops/s: 1 → 28881</title></circle>
<circle cx="162.5" cy="87.1" r="3" fill="#c99700"><title>ops/s: 2 → 27717</title></circle>
<circle cx="201.8" cy="78.9" r="3" fill="#c99700"><title>ops/s: 3 → 28406</title></circle>
<circle cx="241.1" cy="85.6" r="3" fill="#c99700"><title>ops/s: 4 → 27842</title></circle>
<circle cx="280.3" cy="86.1" r="3" fill="#c99700"><title>ops/s: 5 → 27803</title></circle>
<circle cx="319.6" cy="92.4" r="3" fill="#c99700"><title>ops/s: 6 → 27272</title></circle>
<circle cx="358.8" cy="92.9" r="3" fill="#c99700"><title>ops/s: 7 → 27226</title></circle>
<circle cx="398.1" cy="93.2" r="3" fill="#c99700"><title>ops/s: 8 → 27203</title></circle>
<circle cx="437.4" cy="92.8" r="3" fill="#c99700"><title>ops/s: 9 → 27240</title></circle>
<circle cx="476.6" cy="99.9" r="3" fill="#c99700"><title>ops/s: 10 → 26640</title></circle>
<circle cx="515.9" cy="96.0" r="3" fill="#c99700"><title>ops/s: 11 → 26970</title></circle>
<circle cx="555.2" cy="99.0" r="3" fill="#c99700"><title>ops/s: 12 → 26714</title></circle>
<circle cx="594.4" cy="107.5" r="3" fill="#c99700"><title>ops/s: 13 → 25997</title></circle>
<circle cx="633.7" cy="101.7" r="3" fill="#c99700"><title>ops/s: 14 → 26487</title></circle>
<circle cx="672.9" cy="97.0" r="3" fill="#c99700"><title>ops/s: 15 → 26882</title></circle>
<circle cx="712.2" cy="99.9" r="3" fill="#c99700"><title>ops/s: 16 → 26636</title></circle>
<circle cx="751.5" cy="102.5" r="3" fill="#c99700"><title>ops/s: 17 → 26415</title></circle>
<circle cx="790.7" cy="97.8" r="3" fill="#c99700"><title>ops/s: 18 → 26811</title></circle>
<circle cx="830.0" cy="114.7" r="3" fill="#c99700"><title>ops/s: 19 → 25394</title></circle>
<line x1="848" y1="68" x2="870" y2="68" stroke="#c99700" stroke-width="2"/>
<text x="876" y="72" fill="#1f2328">ops/s</text>
<path d="M84.0,415.2 L123.3,415.5 L162.5,415.5 L201.8,415.5 L241.1,415.4 L280.3,415.4 L319.6,415.4 L358.8,415.4 L398.1,415.4 L437.4,415.4 L476.6,415.5 L515.9,415.2 L555.2,415.5 L594.4,415.4 L633.7,415.4 L672.9,415.5 L712.2,415.3 L751.5,415.3 L790.7,415.3 L830.0,415.3" fill="none" stroke="#0969da" stroke-width="2" stroke-dasharray="6 4"/>
<circle cx="84.0" cy="415.2" r="3" fill="#0969da"><title>p99 ms: 0 → 66.03</title></circle>
<circle cx="123.3" cy="415.5" r="3" fill="#0969da"><title>p99 ms: 1 → 45.835</title></circle>
<circle cx="162.5" cy="415.5" r="3" fill="#0969da"><title>p99 ms: 2 → 45.923</title></circle>
<circle cx="201.8" cy="415.5" r="3" fill="#0969da"><title>p99 ms: 3 → 46.03</title></circle>
<circle cx="241.1" cy="415.4" r="3" fill="#0969da"><title>p99 ms: 4 → 47.618</title></circle>
<circle cx="280.3" cy="415.4" r="3" fill="#0969da"><title>p99 ms: 5 → 46.666</title></circle>
<circle cx="319.6" cy="415.4" r="3" fill="#0969da"><title>p99 ms: 6 → 48.154</title></circle>
<circle cx="358.8" cy="415.4" r="3" fill="#0969da"><title>p99 ms: 7 → 47.347</title></circle>
<circle cx="398.1" cy="415.4" r="3" fill="#0969da"><title>p99 ms: 8 → 46.595</title></circle>
<circle cx="437.4" cy="415.4" r="3" fill="#0969da"><title>p99 ms: 9 → 47.928</title></circle>
<circle cx="476.6" cy="415.5" r="3" fill="#0969da"><title>p99 ms: 10 → 45.466</title></circle>
<circle cx="515.9" cy="415.2" r="3" fill="#0969da"><title>p99 ms: 11 → 63.747</title></circle>
<circle cx="555.2" cy="415.5" r="3" fill="#0969da"><title>p99 ms: 12 → 44.296</title></circle>
<circle cx="594.4" cy="415.4" r="3" fill="#0969da"><title>p99 ms: 13 → 47.283</title></circle>
<circle cx="633.7" cy="415.4" r="3" fill="#0969da"><title>p99 ms: 14 → 48.215</title></circle>
<circle cx="672.9" cy="415.5" r="3" fill="#0969da"><title>p99 ms: 15 → 45.262</title></circle>
<circle cx="712.2" cy="415.3" r="3" fill="#0969da"><title>p99 ms: 16 → 62.326</title></circle>
<circle cx="751.5" cy="415.3" r="3" fill="#0969da"><title>p99 ms: 17 → 55.817</title></circle>
<circle cx="790.7" cy="415.3" r="3" fill="#0969da"><title>p99 ms: 18 → 57.964</title></circle>
<circle cx="830.0" cy="415.3" r="3" fill="#0969da"><title>p99 ms: 19 → 62.751</title></circle>
<line x1="848" y1="84" x2="870" y2="84" stroke="#0969da" stroke-width="2" stroke-dasharray="6 4"/>
<text x="876" y="88" fill="#1f2328">p99 ms</text>
</svg>