<svg xmlns="http://www.w3.org/2000/svg" width="1080" height="480" viewBox="0 0 1080 480" font-family="ui-sans-serif, system-ui, sans-serif" font-size="12">
<rect width="1080" height="480" fill="#ffffff"/>
<text x="84" y="26" font-size="17" font-weight="600" fill="#1f2328">Per-second throughput and p99 — 10 users (final-checked-2)</text>
<line x1="84" y1="416.0" x2="830" y2="416.0" stroke="#eaeef2"/>
<text x="76" y="420.0" text-anchor="end" fill="#57606a">0</text>
<line x1="84" y1="344.8" x2="830" y2="344.8" stroke="#eaeef2"/>
<text x="76" y="348.8" text-anchor="end" fill="#57606a">5k</text>
<line x1="84" y1="273.6" x2="830" y2="273.6" stroke="#eaeef2"/>
<text x="76" y="277.6" text-anchor="end" fill="#57606a">10k</text>
<line x1="84" y1="202.4" x2="830" y2="202.4" stroke="#eaeef2"/>
<text x="76" y="206.4" text-anchor="end" fill="#57606a">15k</text>
<line x1="84" y1="131.2" x2="830" y2="131.2" stroke="#eaeef2"/>
<text x="76" y="135.2" text-anchor="end" fill="#57606a">20k</text>
<line x1="84" y1="60.0" x2="830" y2="60.0" stroke="#eaeef2"/>
<text x="76" y="64.0" text-anchor="end" fill="#57606a">25k</text>
<line x1="84.0" y1="60" x2="84.0" y2="416" stroke="#f0f2f4"/>
<text x="84.0" y="434" text-anchor="middle" fill="#57606a">0</text>
<line x1="182.2" y1="60" x2="182.2" y2="416" stroke="#f0f2f4"/>
<text x="182.2" y="434" text-anchor="middle" fill="#57606a">2.5</text>
<line x1="280.3" y1="60" x2="280.3" y2="416" stroke="#f0f2f4"/>
<text x="280.3" y="434" text-anchor="middle" fill="#57606a">5</text>
<line x1="378.5" y1="60" x2="378.5" y2="416" stroke="#f0f2f4"/>
<text x="378.5" y="434" text-anchor="middle" fill="#57606a">7.5</text>
<line x1="476.6" y1="60" x2="476.6" y2="416" stroke="#f0f2f4"/>
<text x="476.6" y="434" text-anchor="middle" fill="#57606a">10</text>
<line x1="574.8" y1="60" x2="574.8" y2="416" stroke="#f0f2f4"/>
<text x="574.8" y="434" text-anchor="middle" fill="#57606a">12.5</text>
<line x1="672.9" y1="60" x2="672.9" y2="416" stroke="#f0f2f4"/>
<text x="672.9" y="434" text-anchor="middle" fill="#57606a">15</text>
<line x1="771.1" y1="60" x2="771.1" y2="416" stroke="#f0f2f4"/>
<text x="771.1" y="434" text-anchor="middle" fill="#57606a">17.5</text>
<line x1="869.3" y1="60" x2="869.3" y2="416" stroke="#f0f2f4"/>
<text x="869.3" y="434" text-anchor="middle" fill="#57606a">20</text>
<rect x="84" y="60" width="746" height="356" fill="none" stroke="#d0d7de"/>
<text x="457.0" y="466" text-anchor="middle" fill="#57606a">second of the measured window</text>
<text x="18" y="238.0" text-anchor="middle" fill="#57606a" transform="rotate(-90 18 238.0)">ops/s · ms</text>
<path d="M84.0,77.2 L123.3,219.0 L162.5,124.8 L201.8,92.7 L241.1,97.6 L280.3,167.4 L319.6,110.4 L358.8,114.5 L398.1,212.0 L437.4,177.9 L476.6,131.2 L515.9,143.6 L555.2,268.0 L594.4,155.4 L633.7,142.5 L672.9,208.7 L712.2,153.8 L751.5,171.5 L790.7,209.7 L830.0,173.1" fill="none" stroke="#c99700" stroke-width="2"/>
<circle cx="84.0" cy="77.2" r="3" fill="#c99700"><title>ops/s: 0 → 23790</title></circle>
<circle cx="123.3" cy="219.0" r="3" fill="#c99700"><title>ops/s: 1 → 13833</title></circle>
<circle cx="162.5" cy="124.8" r="3" fill="#c99700"><title>ops/s: 2 → 20452</title></circle>
<circle cx="201.8" cy="92.7" r="3" fill="#c99700"><title>ops/s: 3 → 22704</title></circle>
<circle cx="241.1" cy="97.6" r="3" fill="#c99700"><title>ops/s: 4 → 22360</title></circle>
<circle cx="280.3" cy="167.4" r="3" fill="#c99700"><title>ops/s: 5 → 17461</title></circle>
<circle cx="319.6" cy="110.4" r="3" fill="#c99700"><title>ops/s: 6 → 21460</title></circle>
<circle cx="358.8" cy="114.5" r="3" fill="#c99700"><title>ops/s: 7 → 21172</title></circle>
<circle cx="398.1" cy="212.0" r="3" fill="#c99700"><title>ops/s: 8 → 14325</title></circle>
<circle cx="437.4" cy="177.9" r="3" fill="#c99700"><title>ops/s: 9 → 16724</title></circle>
<circle cx="476.6" cy="131.2" r="3" fill="#c99700"><title>ops/s: 10 → 19999</title></circle>
<circle cx="515.9" cy="143.6" r="3" fill="#c99700"><title>ops/s: 11 → 19132</title></circle>
<circle cx="555.2" cy="268.0" r="3" fill="#c99700"><title>ops/s: 12 → 10395</title></circle>
<circle cx="594.4" cy="155.4" r="3" fill="#c99700"><title>ops/s: 13 → 18300</title></circle>
<circle cx="633.7" cy="142.5" r="3" fill="#c99700"><title>ops/s: 14 → 19208</title></circle>
<circle cx="672.9" cy="208.7" r="3" fill="#c99700"><title>ops/s: 15 → 14558</title></circle>
<circle cx="712.2" cy="153.8" r="3" fill="#c99700"><title>ops/s: 16 → 18410</title></circle>
<circle cx="751.5" cy="171.5" r="3" fill="#c99700"><title>ops/s: 17 → 17171</title></circle>
<circle cx="790.7" cy="209.7" r="3" fill="#c99700"><title>ops/s: 18 → 14484</title></circle>
<circle cx="830.0" cy="173.1" r="3" fill="#c99700"><title>ops/s: 19 → 17057</title></circle>
<line x1="848" y1="68" x2="870" y2="68" stroke="#c99700" stroke-width="2"/>
<text x="876" y="72" fill="#1f2328">ops/s</text>
<path d="M84.0,415.9 L123.3,415.9 L162.5,415.9 L201.8,415.9 L241.1,415.9 L280.3,415.9 L319.6,415.9 L358.8,415.9 L398.1,415.9 L437.4,415.9 L476.6,415.9 L515.9,415.9 L555.2,415.9 L594.4,415.9 L633.7,415.9 L672.9,415.9 L712.2,415.9 L751.5,415.9 L790.7,415.9 L830.0,415.9" fill="none" stroke="#0969da" stroke-width="2" stroke-dasharray="6 4"/>
<circle cx="84.0" cy="415.9" r="3" fill="#0969da"><title>p99 ms: 0 → 3.861</title></circle>
<circle cx="123.3" cy="415.9" r="3" fill="#0969da"><title>p99 ms: 1 → 4.227</title></circle>
<circle cx="162.5" cy="415.9" r="3" fill="#0969da"><title>p99 ms: 2 → 4.177</title></circle>
<circle cx="201.8" cy="415.9" r="3" fill="#0969da"><title>p99 ms: 3 → 4.341</title></circle>
<circle cx="241.1" cy="415.9" r="3" fill="#0969da"><title>p99 ms: 4 → 4.302</title></circle>
<circle cx="280.3" cy="415.9" r="3" fill="#0969da"><title>p99 ms: 5 → 4.804</title></circle>
<circle cx="319.6" cy="415.9" r="3" fill="#0969da"><title>p99 ms: 6 → 4.681</title></circle>
<circle cx="358.8" cy="415.9" r="3" fill="#0969da"><title>p99 ms: 7 → 4.91</title></circle>
<circle cx="398.1" cy="415.9" r="3" fill="#0969da"><title>p99 ms: 8 → 5.817</title></circle>
<circle cx="437.4" cy="415.9" r="3" fill="#0969da"><title>p99 ms: 9 → 4.783</title></circle>
<circle cx="476.6" cy="415.9" r="3" fill="#0969da"><title>p99 ms: 10 → 5.194</title></circle>
<circle cx="515.9" cy="415.9" r="3" fill="#0969da"><title>p99 ms: 11 → 6.035</title></circle>
<circle cx="555.2" cy="415.9" r="3" fill="#0969da"><title>p99 ms: 12 → 4.046</title></circle>
<circle cx="594.4" cy="415.9" r="3" fill="#0969da"><title>p99 ms: 13 → 6.338</title></circle>
<circle cx="633.7" cy="415.9" r="3" fill="#0969da"><title>p99 ms: 14 → 4.492</title></circle>
<circle cx="672.9" cy="415.9" r="3" fill="#0969da"><title>p99 ms: 15 → 6.344</title></circle>
<circle cx="712.2" cy="415.9" r="3" fill="#0969da"><title>p99 ms: 16 → 6.13</title></circle>
<circle cx="751.5" cy="415.9" r="3" fill="#0969da"><title>p99 ms: 17 → 8.264</title></circle>
<circle cx="790.7" cy="415.9" r="3" fill="#0969da"><title>p99 ms: 18 → 6.506</title></circle>
<circle cx="830.0" cy="415.9" r="3" fill="#0969da"><title>p99 ms: 19 → 7.788</title></circle>
<line x1="848" y1="84" x2="870" y2="84" stroke="#0969da" stroke-width="2" stroke-dasharray="6 4"/>
<text x="876" y="88" fill="#1f2328">p99 ms</text>
</svg>