<svg xmlns="http://www.w3.org/2000/svg" width="1080" height="480" viewBox="0 0 1080 480" font-family="ui-sans-serif, system-ui, sans-serif" font-size="12">
<rect width="1080" height="480" fill="#ffffff"/>
<text x="84" y="26" font-size="17" font-weight="600" fill="#1f2328">Per-second throughput and p99 — 100 users (sqlite-pooled-r3)</text>
<line x1="84" y1="416.0" x2="830" y2="416.0" stroke="#eaeef2"/>
<text x="76" y="420.0" text-anchor="end" fill="#57606a">0</text>
<line x1="84" y1="297.3" x2="830" y2="297.3" stroke="#eaeef2"/>
<text x="76" y="301.3" text-anchor="end" fill="#57606a">200</text>
<line x1="84" y1="178.7" x2="830" y2="178.7" stroke="#eaeef2"/>
<text x="76" y="182.7" text-anchor="end" fill="#57606a">400</text>
<line x1="84" y1="60.0" x2="830" y2="60.0" stroke="#eaeef2"/>
<text x="76" y="64.0" text-anchor="end" fill="#57606a">600</text>
<line x1="84.0" y1="60" x2="84.0" y2="416" stroke="#f0f2f4"/>
<text x="84.0" y="434" text-anchor="middle" fill="#57606a">0</text>
<line x1="212.6" y1="60" x2="212.6" y2="416" stroke="#f0f2f4"/>
<text x="212.6" y="434" text-anchor="middle" fill="#57606a">5</text>
<line x1="341.2" y1="60" x2="341.2" y2="416" stroke="#f0f2f4"/>
<text x="341.2" y="434" text-anchor="middle" fill="#57606a">10</text>
<line x1="469.9" y1="60" x2="469.9" y2="416" stroke="#f0f2f4"/>
<text x="469.9" y="434" text-anchor="middle" fill="#57606a">15</text>
<line x1="598.5" y1="60" x2="598.5" y2="416" stroke="#f0f2f4"/>
<text x="598.5" y="434" text-anchor="middle" fill="#57606a">20</text>
<line x1="727.1" y1="60" x2="727.1" y2="416" stroke="#f0f2f4"/>
<text x="727.1" y="434" text-anchor="middle" fill="#57606a">25</text>
<line x1="855.7" y1="60" x2="855.7" y2="416" stroke="#f0f2f4"/>
<text x="855.7" y="434" text-anchor="middle" fill="#57606a">30</text>
<rect x="84" y="60" width="746" height="356" fill="none" stroke="#d0d7de"/>
<text x="457.0" y="466" text-anchor="middle" fill="#57606a">second of the measured window</text>
<text x="18" y="238.0" text-anchor="middle" fill="#57606a" transform="rotate(-90 18 238.0)">ops/s · ms</text>
<path d="M84.0,24.4 L109.7,38.6 L135.4,30.3 L161.2,38.6 L186.9,65.3 L212.6,9.6 L238.3,56.4 L264.1,60.6 L289.8,71.3 L315.5,68.3 L341.2,68.9 L367.0,35.7 L392.7,36.9 L418.4,1.3 L444.1,55.3 L469.9,25.0 L495.6,57.6 L521.3,60.6 L547.0,33.3 L572.8,52.3 L598.5,46.9 L624.2,52.9 L649.9,29.1 L675.7,33.3 L701.4,10.2 L727.1,15.5 L752.8,4.8 L778.6,54.7 L804.3,41.6 L830.0,21.4" fill="none" stroke="#c99700" stroke-width="2"/>
<circle cx="84.0" cy="24.4" r="3" fill="#c99700"><title>ops/s: 0 → 660</title></circle>
<circle cx="109.7" cy="38.6" r="3" fill="#c99700"><title>ops/s: 1 → 636</title></circle>
<circle cx="135.4" cy="30.3" r="3" fill="#c99700"><title>ops/s: 2 → 650</title></circle>
<circle cx="161.2" cy="38.6" r="3" fill="#c99700"><title>ops/s: 3 → 636</title></circle>
<circle cx="186.9" cy="65.3" r="3" fill="#c99700"><title>ops/s: 4 → 591</title></circle>
<circle cx="212.6" cy="9.6" r="3" fill="#c99700"><title>ops/s: 5 → 685</title></circle>
<circle cx="238.3" cy="56.4" r="3" fill="#c99700"><title>ops/s: 6 → 606</title></circle>
<circle cx="264.1" cy="60.6" r="3" fill="#c99700"><title>ops/s: 7 → 599</title></circle>
<circle cx="289.8" cy="71.3" r="3" fill="#c99700"><title>ops/s: 8 → 581</title></circle>
<circle cx="315.5" cy="68.3" r="3" fill="#c99700"><title>ops/s: 9 → 586</title></circle>
<circle cx="341.2" cy="68.9" r="3" fill="#c99700"><title>ops/s: 10 → 585</title></circle>
<circle cx="367.0" cy="35.7" r="3" fill="#c99700"><title>ops/s: 11 → 641</title></circle>
<circle cx="392.7" cy="36.9" r="3" fill="#c99700"><title>ops/s: 12 → 639</title></circle>
<circle cx="418.4" cy="1.3" r="3" fill="#c99700"><title>ops/s: 13 → 699</title></circle>
<circle cx="444.1" cy="55.3" r="3" fill="#c99700"><title>ops/s: 14 → 608</title></circle>
<circle cx="469.9" cy="25.0" r="3" fill="#c99700"><title>ops/s: 15 → 659</title></circle>
<circle cx="495.6" cy="57.6" r="3" fill="#c99700"><title>ops/s: 16 → 604</title></circle>
<circle cx="521.3" cy="60.6" r="3" fill="#c99700"><title>ops/s: 17 → 599</title></circle>
<circle cx="547.0" cy="33.3" r="3" fill="#c99700"><title>ops/s: 18 → 645</title></circle>
<circle cx="572.8" cy="52.3" r="3" fill="#c99700"><title>ops/s: 19 → 613</title></circle>
<circle cx="598.5" cy="46.9" r="3" fill="#c99700"><title>ops/s: 20 → 622</title></circle>
<circle cx="624.2" cy="52.9" r="3" fill="#c99700"><title>ops/s: 21 → 612</title></circle>
<circle cx="649.9" cy="29.1" r="3" fill="#c99700"><title>ops/s: 22 → 652</title></circle>
<circle cx="675.7" cy="33.3" r="3" fill="#c99700"><title>ops/s: 23 → 645</title></circle>
<circle cx="701.4" cy="10.2" r="3" fill="#c99700"><title>ops/s: 24 → 684</title></circle>
<circle cx="727.1" cy="15.5" r="3" fill="#c99700"><title>ops/s: 25 → 675</title></circle>
<circle cx="752.8" cy="4.8" r="3" fill="#c99700"><title>ops/s: 26 → 693</title></circle>
<circle cx="778.6" cy="54.7" r="3" fill="#c99700"><title>ops/s: 27 → 609</title></circle>
<circle cx="804.3" cy="41.6" r="3" fill="#c99700"><title>ops/s: 28 → 631</title></circle>
<circle cx="830.0" cy="21.4" r="3" fill="#c99700"><title>ops/s: 29 → 665</title></circle>
<line x1="848" y1="68" x2="870" y2="68" stroke="#c99700" stroke-width="2"/>
<text x="876" y="72" fill="#1f2328">ops/s</text>
<path d="M84.0,291.3 L109.7,297.7 L135.4,309.3 L161.2,288.8 L186.9,294.3 L212.6,304.0 L238.3,299.9 L264.1,288.9 L289.8,293.5 L315.5,285.0 L341.2,290.8 L367.0,311.0 L392.7,299.2 L418.4,307.5 L444.1,297.0 L469.9,308.9 L495.6,300.3 L521.3,301.4 L547.0,309.2 L572.8,292.0 L598.5,305.1 L624.2,300.7 L649.9,302.7 L675.7,307.6 L701.4,308.5 L727.1,308.5 L752.8,305.6 L778.6,301.7 L804.3,307.6 L830.0,304.4" fill="none" stroke="#0969da" stroke-width="2" stroke-dasharray="6 4"/>
<circle cx="84.0" cy="291.3" r="3" fill="#0969da"><title>p99 ms: 0 → 210.18</title></circle>
<circle cx="109.7" cy="297.7" r="3" fill="#0969da"><title>p99 ms: 1 → 199.322</title></circle>
<circle cx="135.4" cy="309.3" r="3" fill="#0969da"><title>p99 ms: 2 → 179.882</title></circle>
<circle cx="161.2" cy="288.8" r="3" fill="#0969da"><title>p99 ms: 3 → 214.406</title></circle>
<circle cx="186.9" cy="294.3" r="3" fill="#0969da"><title>p99 ms: 4 → 205.104</title></circle>
<circle cx="212.6" cy="304.0" r="3" fill="#0969da"><title>p99 ms: 5 → 188.694</title></circle>
<circle cx="238.3" cy="299.9" r="3" fill="#0969da"><title>p99 ms: 6 → 195.707</title></circle>
<circle cx="264.1" cy="288.9" r="3" fill="#0969da"><title>p99 ms: 7 → 214.174</title></circle>
<circle cx="289.8" cy="293.5" r="3" fill="#0969da"><title>p99 ms: 8 → 206.478</title></circle>
<circle cx="315.5" cy="285.0" r="3" fill="#0969da"><title>p99 ms: 9 → 220.799</title></circle>
<circle cx="341.2" cy="290.8" r="3" fill="#0969da"><title>p99 ms: 10 → 211.024</title></circle>
<circle cx="367.0" cy="311.0" r="3" fill="#0969da"><title>p99 ms: 11 → 177.018</title></circle>
<circle cx="392.7" cy="299.2" r="3" fill="#0969da"><title>p99 ms: 12 → 196.927</title></circle>
<circle cx="418.4" cy="307.5" r="3" fill="#0969da"><title>p99 ms: 13 → 182.925</title></circle>
<circle cx="444.1" cy="297.0" r="3" fill="#0969da"><title>p99 ms: 14 → 200.515</title></circle>
<circle cx="469.9" cy="308.9" r="3" fill="#0969da"><title>p99 ms: 15 → 180.431</title></circle>
<circle cx="495.6" cy="300.3" r="3" fill="#0969da"><title>p99 ms: 16 → 194.986</title></circle>
<circle cx="521.3" cy="301.4" r="3" fill="#0969da"><title>p99 ms: 17 → 193.17</title></circle>
<circle cx="547.0" cy="309.2" r="3" fill="#0969da"><title>p99 ms: 18 → 180.067</title></circle>
<circle cx="572.8" cy="292.0" r="3" fill="#0969da"><title>p99 ms: 19 → 209.073</title></circle>
<circle cx="598.5" cy="305.1" r="3" fill="#0969da"><title>p99 ms: 20 → 186.86</title></circle>
<circle cx="624.2" cy="300.7" r="3" fill="#0969da"><title>p99 ms: 21 → 194.274</title></circle>
<circle cx="649.9" cy="302.7" r="3" fill="#0969da"><title>p99 ms: 22 → 190.941</title></circle>
<circle cx="675.7" cy="307.6" r="3" fill="#0969da"><title>p99 ms: 23 → 182.615</title></circle>
<circle cx="701.4" cy="308.5" r="3" fill="#0969da"><title>p99 ms: 24 → 181.171</title></circle>
<circle cx="727.1" cy="308.5" r="3" fill="#0969da"><title>p99 ms: 25 → 181.132</title></circle>
<circle cx="752.8" cy="305.6" r="3" fill="#0969da"><title>p99 ms: 26 → 186.009</title></circle>
<circle cx="778.6" cy="301.7" r="3" fill="#0969da"><title>p99 ms: 27 → 192.685</title></circle>
<circle cx="804.3" cy="307.6" r="3" fill="#0969da"><title>p99 ms: 28 → 182.685</title></circle>
<circle cx="830.0" cy="304.4" r="3" fill="#0969da"><title>p99 ms: 29 → 188.01</title></circle>
<line x1="848" y1="84" x2="870" y2="84" stroke="#0969da" stroke-width="2" stroke-dasharray="6 4"/>
<text x="876" y="88" fill="#1f2328">p99 ms</text>
</svg>