<svg xmlns="http://www.w3.org/2000/svg" width="1080" height="480" viewBox="0 0 1080 480" font-family="ui-sans-serif, system-ui, sans-serif" font-size="12">
<rect width="1080" height="480" fill="#ffffff"/>
<text x="84" y="26" font-size="17" font-weight="600" fill="#1f2328">Per-second throughput and p99 — 1000 users (sqlite-think0)</text>
<line x1="84" y1="416.0" x2="830" y2="416.0" stroke="#eaeef2"/>
<text x="76" y="420.0" text-anchor="end" fill="#57606a">0</text>
<line x1="84" y1="344.8" x2="830" y2="344.8" stroke="#eaeef2"/>
<text x="76" y="348.8" text-anchor="end" fill="#57606a">2k</text>
<line x1="84" y1="273.6" x2="830" y2="273.6" stroke="#eaeef2"/>
<text x="76" y="277.6" text-anchor="end" fill="#57606a">4k</text>
<line x1="84" y1="202.4" x2="830" y2="202.4" stroke="#eaeef2"/>
<text x="76" y="206.4" text-anchor="end" fill="#57606a">6k</text>
<line x1="84" y1="131.2" x2="830" y2="131.2" stroke="#eaeef2"/>
<text x="76" y="135.2" text-anchor="end" fill="#57606a">8k</text>
<line x1="84" y1="60.0" x2="830" y2="60.0" stroke="#eaeef2"/>
<text x="76" y="64.0" text-anchor="end" fill="#57606a">10k</text>
<line x1="84.0" y1="60" x2="84.0" y2="416" stroke="#f0f2f4"/>
<text x="84.0" y="434" text-anchor="middle" fill="#57606a">0</text>
<line x1="210.4" y1="60" x2="210.4" y2="416" stroke="#f0f2f4"/>
<text x="210.4" y="434" text-anchor="middle" fill="#57606a">10</text>
<line x1="336.9" y1="60" x2="336.9" y2="416" stroke="#f0f2f4"/>
<text x="336.9" y="434" text-anchor="middle" fill="#57606a">20</text>
<line x1="463.3" y1="60" x2="463.3" y2="416" stroke="#f0f2f4"/>
<text x="463.3" y="434" text-anchor="middle" fill="#57606a">30</text>
<line x1="589.8" y1="60" x2="589.8" y2="416" stroke="#f0f2f4"/>
<text x="589.8" y="434" text-anchor="middle" fill="#57606a">40</text>
<line x1="716.2" y1="60" x2="716.2" y2="416" stroke="#f0f2f4"/>
<text x="716.2" y="434" text-anchor="middle" fill="#57606a">50</text>
<line x1="842.6" y1="60" x2="842.6" y2="416" stroke="#f0f2f4"/>
<text x="842.6" y="434" text-anchor="middle" fill="#57606a">60</text>
<rect x="84" y="60" width="746" height="356" fill="none" stroke="#d0d7de"/>
<text x="457.0" y="466" text-anchor="middle" fill="#57606a">second of the measured window</text>
<text x="18" y="238.0" text-anchor="middle" fill="#57606a" transform="rotate(-90 18 238.0)">ops/s · ms</text>
<path d="M84.0,67.6 L96.6,60.5 L109.3,57.9 L121.9,47.4 L134.6,53.4 L147.2,54.2 L159.9,57.5 L172.5,54.8 L185.2,49.0 L197.8,46.5 L210.4,62.3 L223.1,51.1 L235.7,53.9 L248.4,45.8 L261.0,55.8 L273.7,59.3 L286.3,64.3 L298.9,55.7 L311.6,60.1 L324.2,66.9 L336.9,64.9 L349.5,56.3 L362.2,53.1 L374.8,60.8 L387.5,60.0 L400.1,67.0 L412.7,68.2 L425.4,60.1 L438.0,66.9 L450.7,73.7 L463.3,72.3 L476.0,75.5 L488.6,58.8 L501.3,57.4 L513.9,67.9 L526.5,79.5 L539.2,78.1 L551.8,74.5 L564.5,59.7 L577.1,65.8 L589.8,83.5 L602.4,82.1 L615.1,83.2 L627.7,82.9 L640.3,81.1 L653.0,82.6 L665.6,84.5 L678.3,74.5 L690.9,79.7 L703.6,76.6 L716.2,72.1 L728.8,89.2 L741.5,72.4 L754.1,73.1 L766.8,82.4 L779.4,76.9 L792.1,83.9 L804.7,87.1 L817.4,71.8 L830.0,72.2" fill="none" stroke="#c99700" stroke-width="2"/>
<circle cx="84.0" cy="67.6" r="3" fill="#c99700"><title>ops/s: 0 → 9786</title></circle>
<circle cx="96.6" cy="60.5" r="3" fill="#c99700"><title>ops/s: 1 → 9987</title></circle>
<circle cx="109.3" cy="57.9" r="3" fill="#c99700"><title>ops/s: 2 → 10060</title></circle>
<circle cx="121.9" cy="47.4" r="3" fill="#c99700"><title>ops/s: 3 → 10353</title></circle>
<circle cx="134.6" cy="53.4" r="3" fill="#c99700"><title>ops/s: 4 → 10185</title></circle>
<circle cx="147.2" cy="54.2" r="3" fill="#c99700"><title>ops/s: 5 → 10162</title></circle>
<circle cx="159.9" cy="57.5" r="3" fill="#c99700"><title>ops/s: 6 → 10069</title></circle>
<circle cx="172.5" cy="54.8" r="3" fill="#c99700"><title>ops/s: 7 → 10147</title></circle>
<circle cx="185.2" cy="49.0" r="3" fill="#c99700"><title>ops/s: 8 → 10310</title></circle>
<circle cx="197.8" cy="46.5" r="3" fill="#c99700"><title>ops/s: 9 → 10378</title></circle>
<circle cx="210.4" cy="62.3" r="3" fill="#c99700"><title>ops/s: 10 → 9935</title></circle>
<circle cx="223.1" cy="51.1" r="3" fill="#c99700"><title>ops/s: 11 → 10249</title></circle>
<circle cx="235.7" cy="53.9" r="3" fill="#c99700"><title>ops/s: 12 → 10172</title></circle>
<circle cx="248.4" cy="45.8" r="3" fill="#c99700"><title>ops/s: 13 → 10399</title></circle>
<circle cx="261.0" cy="55.8" r="3" fill="#c99700"><title>ops/s: 14 → 10117</title></circle>
<circle cx="273.7" cy="59.3" r="3" fill="#c99700"><title>ops/s: 15 → 10019</title></circle>
<circle cx="286.3" cy="64.3" r="3" fill="#c99700"><title>ops/s: 16 → 9878</title></circle>
<circle cx="298.9" cy="55.7" r="3" fill="#c99700"><title>ops/s: 17 → 10120</title></circle>
<circle cx="311.6" cy="60.1" r="3" fill="#c99700"><title>ops/s: 18 → 9997</title></circle>
<circle cx="324.2" cy="66.9" r="3" fill="#c99700"><title>ops/s: 19 → 9806</title></circle>
<circle cx="336.9" cy="64.9" r="3" fill="#c99700"><title>ops/s: 20 → 9863</title></circle>
<circle cx="349.5" cy="56.3" r="3" fill="#c99700"><title>ops/s: 21 → 10104</title></circle>
<circle cx="362.2" cy="53.1" r="3" fill="#c99700"><title>ops/s: 22 → 10194</title></circle>
<circle cx="374.8" cy="60.8" r="3" fill="#c99700"><title>ops/s: 23 → 9978</title></circle>
<circle cx="387.5" cy="60.0" r="3" fill="#c99700"><title>ops/s: 24 → 9999</title></circle>
<circle cx="400.1" cy="67.0" r="3" fill="#c99700"><title>ops/s: 25 → 9804</title></circle>
<circle cx="412.7" cy="68.2" r="3" fill="#c99700"><title>ops/s: 26 → 9770</title></circle>
<circle cx="425.4" cy="60.1" r="3" fill="#c99700"><title>ops/s: 27 → 9998</title></circle>
<circle cx="438.0" cy="66.9" r="3" fill="#c99700"><title>ops/s: 28 → 9806</title></circle>
<circle cx="450.7" cy="73.7" r="3" fill="#c99700"><title>ops/s: 29 → 9615</title></circle>
<circle cx="463.3" cy="72.3" r="3" fill="#c99700"><title>ops/s: 30 → 9655</title></circle>
<circle cx="476.0" cy="75.5" r="3" fill="#c99700"><title>ops/s: 31 → 9565</title></circle>
<circle cx="488.6" cy="58.8" r="3" fill="#c99700"><title>ops/s: 32 → 10035</title></circle>
<circle cx="501.3" cy="57.4" r="3" fill="#c99700"><title>ops/s: 33 → 10073</title></circle>
<circle cx="513.9" cy="67.9" r="3" fill="#c99700"><title>ops/s: 34 → 9778</title></circle>
<circle cx="526.5" cy="79.5" r="3" fill="#c99700"><title>ops/s: 35 → 9453</title></circle>
<circle cx="539.2" cy="78.1" r="3" fill="#c99700"><title>ops/s: 36 → 9492</title></circle>
<circle cx="551.8" cy="74.5" r="3" fill="#c99700"><title>ops/s: 37 → 9592</title></circle>
<circle cx="564.5" cy="59.7" r="3" fill="#c99700"><title>ops/s: 38 → 10008</title></circle>
<circle cx="577.1" cy="65.8" r="3" fill="#c99700"><title>ops/s: 39 → 9838</title></circle>
<circle cx="589.8" cy="83.5" r="3" fill="#c99700"><title>ops/s: 40 → 9339</title></circle>
<circle cx="602.4" cy="82.1" r="3" fill="#c99700"><title>ops/s: 41 → 9378</title></circle>
<circle cx="615.1" cy="83.2" r="3" fill="#c99700"><title>ops/s: 42 → 9347</title></circle>
<circle cx="627.7" cy="82.9" r="3" fill="#c99700"><title>ops/s: 43 → 9357</title></circle>
<circle cx="640.3" cy="81.1" r="3" fill="#c99700"><title>ops/s: 44 → 9407</title></circle>
<circle cx="653.0" cy="82.6" r="3" fill="#c99700"><title>ops/s: 45 → 9365</title></circle>
<circle cx="665.6" cy="84.5" r="3" fill="#c99700"><title>ops/s: 46 → 9311</title></circle>
<circle cx="678.3" cy="74.5" r="3" fill="#c99700"><title>ops/s: 47 → 9594</title></circle>
<circle cx="690.9" cy="79.7" r="3" fill="#c99700"><title>ops/s: 48 → 9447</title></circle>
<circle cx="703.6" cy="76.6" r="3" fill="#c99700"><title>ops/s: 49 → 9533</title></circle>
<circle cx="716.2" cy="72.1" r="3" fill="#c99700"><title>ops/s: 50 → 9659</title></circle>
<circle cx="728.8" cy="89.2" r="3" fill="#c99700"><title>ops/s: 51 → 9180</title></circle>
<circle cx="741.5" cy="72.4" r="3" fill="#c99700"><title>ops/s: 52 → 9651</title></circle>
<circle cx="754.1" cy="73.1" r="3" fill="#c99700"><title>ops/s: 53 → 9632</title></circle>
<circle cx="766.8" cy="82.4" r="3" fill="#c99700"><title>ops/s: 54 → 9371</title></circle>
<circle cx="779.4" cy="76.9" r="3" fill="#c99700"><title>ops/s: 55 → 9524</title></circle>
<circle cx="792.1" cy="83.9" r="3" fill="#c99700"><title>ops/s: 56 → 9330</title></circle>
<circle cx="804.7" cy="87.1" r="3" fill="#c99700"><title>ops/s: 57 → 9240</title></circle>
<circle cx="817.4" cy="71.8" r="3" fill="#c99700"><title>ops/s: 58 → 9669</title></circle>
<circle cx="830.0" cy="72.2" r="3" fill="#c99700"><title>ops/s: 59 → 9657</title></circle>
<line x1="848" y1="68" x2="870" y2="68" stroke="#c99700" stroke-width="2"/>
<text x="876" y="72" fill="#1f2328">ops/s</text>
<path d="M84.0,313.0 L96.6,324.8 L109.3,323.0 L121.9,318.7 L134.6,317.5 L147.2,318.8 L159.9,322.0 L172.5,318.7 L185.2,329.9 L197.8,318.0 L210.4,318.5 L223.1,318.2 L235.7,319.1 L248.4,324.2 L261.0,318.8 L273.7,314.6 L286.3,315.0 L298.9,329.2 L311.6,315.5 L324.2,323.0 L336.9,318.3 L349.5,325.6 L362.2,311.1 L374.8,312.5 L387.5,317.8 L400.1,323.0 L412.7,325.9 L425.4,326.4 L438.0,306.9 L450.7,322.1 L463.3,314.7 L476.0,307.1 L488.6,326.0 L501.3,307.5 L513.9,322.2 L526.5,325.9 L539.2,311.0 L551.8,318.0 L564.5,318.4 L577.1,304.4 L589.8,318.2 L602.4,317.8 L615.1,314.8 L627.7,321.8 L640.3,307.2 L653.0,314.6 L665.6,315.1 L678.3,318.2 L690.9,304.1 L703.6,307.7 L716.2,314.8 L728.8,322.8 L741.5,307.3 L754.1,306.7 L766.8,321.3 L779.4,318.4 L792.1,314.9 L804.7,321.1 L817.4,340.2 L830.0,366.7" fill="none" stroke="#0969da" stroke-width="2" stroke-dasharray="6 4"/>
<circle cx="84.0" cy="313.0" r="3" fill="#0969da"><title>p99 ms: 0 → 2893.75</title></circle>
<circle cx="96.6" cy="324.8" r="3" fill="#0969da"><title>p99 ms: 1 → 2563</title></circle>
<circle cx="109.3" cy="323.0" r="3" fill="#0969da"><title>p99 ms: 2 → 2613.66</title></circle>
<circle cx="121.9" cy="318.7" r="3" fill="#0969da"><title>p99 ms: 3 → 2733.73</title></circle>
<circle cx="134.6" cy="317.5" r="3" fill="#0969da"><title>p99 ms: 4 → 2766.77</title></circle>
<circle cx="147.2" cy="318.8" r="3" fill="#0969da"><title>p99 ms: 5 → 2731.65</title></circle>
<circle cx="159.9" cy="322.0" r="3" fill="#0969da"><title>p99 ms: 6 → 2641.09</title></circle>
<circle cx="172.5" cy="318.7" r="3" fill="#0969da"><title>p99 ms: 7 → 2733.17</title></circle>
<circle cx="185.2" cy="329.9" r="3" fill="#0969da"><title>p99 ms: 8 → 2419.19</title></circle>
<circle cx="197.8" cy="318.0" r="3" fill="#0969da"><title>p99 ms: 9 → 2752.59</title></circle>
<circle cx="210.4" cy="318.5" r="3" fill="#0969da"><title>p99 ms: 10 → 2738.05</title></circle>
<circle cx="223.1" cy="318.2" r="3" fill="#0969da"><title>p99 ms: 11 → 2748.41</title></circle>
<circle cx="235.7" cy="319.1" r="3" fill="#0969da"><title>p99 ms: 12 → 2721.26</title></circle>
<circle cx="248.4" cy="324.2" r="3" fill="#0969da"><title>p99 ms: 13 → 2579.04</title></circle>
<circle cx="261.0" cy="318.8" r="3" fill="#0969da"><title>p99 ms: 14 → 2731.51</title></circle>
<circle cx="273.7" cy="314.6" r="3" fill="#0969da"><title>p99 ms: 15 → 2849.31</title></circle>
<circle cx="286.3" cy="315.0" r="3" fill="#0969da"><title>p99 ms: 16 → 2838.05</title></circle>
<circle cx="298.9" cy="329.2" r="3" fill="#0969da"><title>p99 ms: 17 → 2439.13</title></circle>
<circle cx="311.6" cy="315.5" r="3" fill="#0969da"><title>p99 ms: 18 → 2823.59</title></circle>
<circle cx="324.2" cy="323.0" r="3" fill="#0969da"><title>p99 ms: 19 → 2611.3</title></circle>
<circle cx="336.9" cy="318.3" r="3" fill="#0969da"><title>p99 ms: 20 → 2744.42</title></circle>
<circle cx="349.5" cy="325.6" r="3" fill="#0969da"><title>p99 ms: 21 → 2538.97</title></circle>
<circle cx="362.2" cy="311.1" r="3" fill="#0969da"><title>p99 ms: 22 → 2947.76</title></circle>
<circle cx="374.8" cy="312.5" r="3" fill="#0969da"><title>p99 ms: 23 → 2907.44</title></circle>
<circle cx="387.5" cy="317.8" r="3" fill="#0969da"><title>p99 ms: 24 → 2757.89</title></circle>
<circle cx="400.1" cy="323.0" r="3" fill="#0969da"><title>p99 ms: 25 → 2612.47</title></circle>
<circle cx="412.7" cy="325.9" r="3" fill="#0969da"><title>p99 ms: 26 → 2531.71</title></circle>
<circle cx="425.4" cy="326.4" r="3" fill="#0969da"><title>p99 ms: 27 → 2517.88</title></circle>
<circle cx="438.0" cy="306.9" r="3" fill="#0969da"><title>p99 ms: 28 → 3064.28</title></circle>
<circle cx="450.7" cy="322.1" r="3" fill="#0969da"><title>p99 ms: 29 → 2637.95</title></circle>
<circle cx="463.3" cy="314.7" r="3" fill="#0969da"><title>p99 ms: 30 → 2845.35</title></circle>
<circle cx="476.0" cy="307.1" r="3" fill="#0969da"><title>p99 ms: 31 → 3057.59</title></circle>
<circle cx="488.6" cy="326.0" r="3" fill="#0969da"><title>p99 ms: 32 → 2529.4</title></circle>
<circle cx="501.3" cy="307.5" r="3" fill="#0969da"><title>p99 ms: 33 → 3048.21</title></circle>
<circle cx="513.9" cy="322.2" r="3" fill="#0969da"><title>p99 ms: 34 → 2634.42</title></circle>
<circle cx="526.5" cy="325.9" r="3" fill="#0969da"><title>p99 ms: 35 → 2530.07</title></circle>
<circle cx="539.2" cy="311.0" r="3" fill="#0969da"><title>p99 ms: 36 → 2948.12</title></circle>
<circle cx="551.8" cy="318.0" r="3" fill="#0969da"><title>p99 ms: 37 → 2754.2</title></circle>
<circle cx="564.5" cy="318.4" r="3" fill="#0969da"><title>p99 ms: 38 → 2742.72</title></circle>
<circle cx="577.1" cy="304.4" r="3" fill="#0969da"><title>p99 ms: 39 → 3136.13</title></circle>
<circle cx="589.8" cy="318.2" r="3" fill="#0969da"><title>p99 ms: 40 → 2747.8</title></circle>
<circle cx="602.4" cy="317.8" r="3" fill="#0969da"><title>p99 ms: 41 → 2758.52</title></circle>
<circle cx="615.1" cy="314.8" r="3" fill="#0969da"><title>p99 ms: 42 → 2843.02</title></circle>
<circle cx="627.7" cy="321.8" r="3" fill="#0969da"><title>p99 ms: 43 → 2646.64</title></circle>
<circle cx="640.3" cy="307.2" r="3" fill="#0969da"><title>p99 ms: 44 → 3055.95</title></circle>
<circle cx="653.0" cy="314.6" r="3" fill="#0969da"><title>p99 ms: 45 → 2849.71</title></circle>
<circle cx="665.6" cy="315.1" r="3" fill="#0969da"><title>p99 ms: 46 → 2834.89</title></circle>
<circle cx="678.3" cy="318.2" r="3" fill="#0969da"><title>p99 ms: 47 → 2746.35</title></circle>
<circle cx="690.9" cy="304.1" r="3" fill="#0969da"><title>p99 ms: 48 → 3143.54</title></circle>
<circle cx="703.6" cy="307.7" r="3" fill="#0969da"><title>p99 ms: 49 → 3041.56</title></circle>
<circle cx="716.2" cy="314.8" r="3" fill="#0969da"><title>p99 ms: 50 → 2842.72</title></circle>
<circle cx="728.8" cy="322.8" r="3" fill="#0969da"><title>p99 ms: 51 → 2618.29</title></circle>
<circle cx="741.5" cy="307.3" r="3" fill="#0969da"><title>p99 ms: 52 → 3052.25</title></circle>
<circle cx="754.1" cy="306.7" r="3" fill="#0969da"><title>p99 ms: 53 → 3070.39</title></circle>
<circle cx="766.8" cy="321.3" r="3" fill="#0969da"><title>p99 ms: 54 → 2659.27</title></circle>
<circle cx="779.4" cy="318.4" r="3" fill="#0969da"><title>p99 ms: 55 → 2742.79</title></circle>
<circle cx="792.1" cy="314.9" r="3" fill="#0969da"><title>p99 ms: 56 → 2838.49</title></circle>
<circle cx="804.7" cy="321.1" r="3" fill="#0969da"><title>p99 ms: 57 → 2665.78</title></circle>
<circle cx="817.4" cy="340.2" r="3" fill="#0969da"><title>p99 ms: 58 → 2128.08</title></circle>
<circle cx="830.0" cy="366.7" r="3" fill="#0969da"><title>p99 ms: 59 → 1384.76</title></circle>
<line x1="848" y1="84" x2="870" y2="84" stroke="#0969da" stroke-width="2" stroke-dasharray="6 4"/>
<text x="876" y="88" fill="#1f2328">p99 ms</text>
</svg>