<svg xmlns="http://www.w3.org/2000/svg" width="1080" height="480" viewBox="0 0 1080 480" font-family="ui-sans-serif, system-ui, sans-serif" font-size="12">
<rect width="1080" height="480" fill="#ffffff"/>
<text x="84" y="26" font-size="17" font-weight="600" fill="#1f2328">Per-second throughput and p99 — 200 users (sqlite-think0)</text>
<line x1="84" y1="416.0" x2="830" y2="416.0" stroke="#eaeef2"/>
<text x="76" y="420.0" text-anchor="end" fill="#57606a">0</text>
<line x1="84" y1="344.8" x2="830" y2="344.8" stroke="#eaeef2"/>
<text x="76" y="348.8" text-anchor="end" fill="#57606a">2k</text>
<line x1="84" y1="273.6" x2="830" y2="273.6" stroke="#eaeef2"/>
<text x="76" y="277.6" text-anchor="end" fill="#57606a">4k</text>
<line x1="84" y1="202.4" x2="830" y2="202.4" stroke="#eaeef2"/>
<text x="76" y="206.4" text-anchor="end" fill="#57606a">6k</text>
<line x1="84" y1="131.2" x2="830" y2="131.2" stroke="#eaeef2"/>
<text x="76" y="135.2" text-anchor="end" fill="#57606a">8k</text>
<line x1="84" y1="60.0" x2="830" y2="60.0" stroke="#eaeef2"/>
<text x="76" y="64.0" text-anchor="end" fill="#57606a">10k</text>
<line x1="84.0" y1="60" x2="84.0" y2="416" stroke="#f0f2f4"/>
<text x="84.0" y="434" text-anchor="middle" fill="#57606a">0</text>
<line x1="210.4" y1="60" x2="210.4" y2="416" stroke="#f0f2f4"/>
<text x="210.4" y="434" text-anchor="middle" fill="#57606a">10</text>
<line x1="336.9" y1="60" x2="336.9" y2="416" stroke="#f0f2f4"/>
<text x="336.9" y="434" text-anchor="middle" fill="#57606a">20</text>
<line x1="463.3" y1="60" x2="463.3" y2="416" stroke="#f0f2f4"/>
<text x="463.3" y="434" text-anchor="middle" fill="#57606a">30</text>
<line x1="589.8" y1="60" x2="589.8" y2="416" stroke="#f0f2f4"/>
<text x="589.8" y="434" text-anchor="middle" fill="#57606a">40</text>
<line x1="716.2" y1="60" x2="716.2" y2="416" stroke="#f0f2f4"/>
<text x="716.2" y="434" text-anchor="middle" fill="#57606a">50</text>
<line x1="842.6" y1="60" x2="842.6" y2="416" stroke="#f0f2f4"/>
<text x="842.6" y="434" text-anchor="middle" fill="#57606a">60</text>
<rect x="84" y="60" width="746" height="356" fill="none" stroke="#d0d7de"/>
<text x="457.0" y="466" text-anchor="middle" fill="#57606a">second of the measured window</text>
<text x="18" y="238.0" text-anchor="middle" fill="#57606a" transform="rotate(-90 18 238.0)">ops/s · ms</text>
<path d="M84.0,87.1 L96.6,64.7 L109.3,48.1 L121.9,44.6 L134.6,69.2 L147.2,48.9 L159.9,51.0 L172.5,52.1 L185.2,39.2 L197.8,36.2 L210.4,34.6 L223.1,30.3 L235.7,40.2 L248.4,44.1 L261.0,37.0 L273.7,42.4 L286.3,41.0 L298.9,52.6 L311.6,57.7 L324.2,47.5 L336.9,40.0 L349.5,48.4 L362.2,41.4 L374.8,56.6 L387.5,56.5 L400.1,47.4 L412.7,45.7 L425.4,47.2 L438.0,48.4 L450.7,45.5 L463.3,50.7 L476.0,41.5 L488.6,62.6 L501.3,49.0 L513.9,69.0 L526.5,53.6 L539.2,82.5 L551.8,75.7 L564.5,51.2 L577.1,62.6 L589.8,65.5 L602.4,54.5 L615.1,54.3 L627.7,55.9 L640.3,63.1 L653.0,70.5 L665.6,73.6 L678.3,64.8 L690.9,113.8 L703.6,75.7 L716.2,85.4 L728.8,73.5 L741.5,69.5 L754.1,74.1 L766.8,57.2 L779.4,70.4 L792.1,68.6 L804.7,59.9 L817.4,55.7 L830.0,60.3" fill="none" stroke="#c99700" stroke-width="2"/>
<circle cx="84.0" cy="87.1" r="3" fill="#c99700"><title>ops/s: 0 → 9238</title></circle>
<circle cx="96.6" cy="64.7" r="3" fill="#c99700"><title>ops/s: 1 → 9869</title></circle>
<circle cx="109.3" cy="48.1" r="3" fill="#c99700"><title>ops/s: 2 → 10334</title></circle>
<circle cx="121.9" cy="44.6" r="3" fill="#c99700"><title>ops/s: 3 → 10432</title></circle>
<circle cx="134.6" cy="69.2" r="3" fill="#c99700"><title>ops/s: 4 → 9742</title></circle>
<circle cx="147.2" cy="48.9" r="3" fill="#c99700"><title>ops/s: 5 → 10313</title></circle>
<circle cx="159.9" cy="51.0" r="3" fill="#c99700"><title>ops/s: 6 → 10254</title></circle>
<circle cx="172.5" cy="52.1" r="3" fill="#c99700"><title>ops/s: 7 → 10221</title></circle>
<circle cx="185.2" cy="39.2" r="3" fill="#c99700"><title>ops/s: 8 → 10583</title></circle>
<circle cx="197.8" cy="36.2" r="3" fill="#c99700"><title>ops/s: 9 → 10668</title></circle>
<circle cx="210.4" cy="34.6" r="3" fill="#c99700"><title>ops/s: 10 → 10714</title></circle>
<circle cx="223.1" cy="30.3" r="3" fill="#c99700"><title>ops/s: 11 → 10835</title></circle>
<circle cx="235.7" cy="40.2" r="3" fill="#c99700"><title>ops/s: 12 → 10555</title></circle>
<circle cx="248.4" cy="44.1" r="3" fill="#c99700"><title>ops/s: 13 → 10448</title></circle>
<circle cx="261.0" cy="37.0" r="3" fill="#c99700"><title>ops/s: 14 → 10646</title></circle>
<circle cx="273.7" cy="42.4" r="3" fill="#c99700"><title>ops/s: 15 → 10495</title></circle>
<circle cx="286.3" cy="41.0" r="3" fill="#c99700"><title>ops/s: 16 → 10535</title></circle>
<circle cx="298.9" cy="52.6" r="3" fill="#c99700"><title>ops/s: 17 → 10208</title></circle>
<circle cx="311.6" cy="57.7" r="3" fill="#c99700"><title>ops/s: 18 → 10064</title></circle>
<circle cx="324.2" cy="47.5" r="3" fill="#c99700"><title>ops/s: 19 → 10350</title></circle>
<circle cx="336.9" cy="40.0" r="3" fill="#c99700"><title>ops/s: 20 → 10561</title></circle>
<circle cx="349.5" cy="48.4" r="3" fill="#c99700"><title>ops/s: 21 → 10327</title></circle>
<circle cx="362.2" cy="41.4" r="3" fill="#c99700"><title>ops/s: 22 → 10523</title></circle>
<circle cx="374.8" cy="56.6" r="3" fill="#c99700"><title>ops/s: 23 → 10096</title></circle>
<circle cx="387.5" cy="56.5" r="3" fill="#c99700"><title>ops/s: 24 → 10099</title></circle>
<circle cx="400.1" cy="47.4" r="3" fill="#c99700"><title>ops/s: 25 → 10354</title></circle>
<circle cx="412.7" cy="45.7" r="3" fill="#c99700"><title>ops/s: 26 → 10401</title></circle>
<circle cx="425.4" cy="47.2" r="3" fill="#c99700"><title>ops/s: 27 → 10359</title></circle>
<circle cx="438.0" cy="48.4" r="3" fill="#c99700"><title>ops/s: 28 → 10326</title></circle>
<circle cx="450.7" cy="45.5" r="3" fill="#c99700"><title>ops/s: 29 → 10407</title></circle>
<circle cx="463.3" cy="50.7" r="3" fill="#c99700"><title>ops/s: 30 → 10261</title></circle>
<circle cx="476.0" cy="41.5" r="3" fill="#c99700"><title>ops/s: 31 → 10519</title></circle>
<circle cx="488.6" cy="62.6" r="3" fill="#c99700"><title>ops/s: 32 → 9928</title></circle>
<circle cx="501.3" cy="49.0" r="3" fill="#c99700"><title>ops/s: 33 → 10310</title></circle>
<circle cx="513.9" cy="69.0" r="3" fill="#c99700"><title>ops/s: 34 → 9747</title></circle>
<circle cx="526.5" cy="53.6" r="3" fill="#c99700"><title>ops/s: 35 → 10179</title></circle>
<circle cx="539.2" cy="82.5" r="3" fill="#c99700"><title>ops/s: 36 → 9369</title></circle>
<circle cx="551.8" cy="75.7" r="3" fill="#c99700"><title>ops/s: 37 → 9559</title></circle>
<circle cx="564.5" cy="51.2" r="3" fill="#c99700"><title>ops/s: 38 → 10247</title></circle>
<circle cx="577.1" cy="62.6" r="3" fill="#c99700"><title>ops/s: 39 → 9927</title></circle>
<circle cx="589.8" cy="65.5" r="3" fill="#c99700"><title>ops/s: 40 → 9846</title></circle>
<circle cx="602.4" cy="54.5" r="3" fill="#c99700"><title>ops/s: 41 → 10154</title></circle>
<circle cx="615.1" cy="54.3" r="3" fill="#c99700"><title>ops/s: 42 → 10159</title></circle>
<circle cx="627.7" cy="55.9" r="3" fill="#c99700"><title>ops/s: 43 → 10116</title></circle>
<circle cx="640.3" cy="63.1" r="3" fill="#c99700"><title>ops/s: 44 → 9913</title></circle>
<circle cx="653.0" cy="70.5" r="3" fill="#c99700"><title>ops/s: 45 → 9705</title></circle>
<circle cx="665.6" cy="73.6" r="3" fill="#c99700"><title>ops/s: 46 → 9618</title></circle>
<circle cx="678.3" cy="64.8" r="3" fill="#c99700"><title>ops/s: 47 → 9865</title></circle>
<circle cx="690.9" cy="113.8" r="3" fill="#c99700"><title>ops/s: 48 → 8488</title></circle>
<circle cx="703.6" cy="75.7" r="3" fill="#c99700"><title>ops/s: 49 → 9560</title></circle>
<circle cx="716.2" cy="85.4" r="3" fill="#c99700"><title>ops/s: 50 → 9286</title></circle>
<circle cx="728.8" cy="73.5" r="3" fill="#c99700"><title>ops/s: 51 → 9621</title></circle>
<circle cx="741.5" cy="69.5" r="3" fill="#c99700"><title>ops/s: 52 → 9733</title></circle>
<circle cx="754.1" cy="74.1" r="3" fill="#c99700"><title>ops/s: 53 → 9605</title></circle>
<circle cx="766.8" cy="57.2" r="3" fill="#c99700"><title>ops/s: 54 → 10079</title></circle>
<circle cx="779.4" cy="70.4" r="3" fill="#c99700"><title>ops/s: 55 → 9707</title></circle>
<circle cx="792.1" cy="68.6" r="3" fill="#c99700"><title>ops/s: 56 → 9758</title></circle>
<circle cx="804.7" cy="59.9" r="3" fill="#c99700"><title>ops/s: 57 → 10003</title></circle>
<circle cx="817.4" cy="55.7" r="3" fill="#c99700"><title>ops/s: 58 → 10120</title></circle>
<circle cx="830.0" cy="60.3" r="3" fill="#c99700"><title>ops/s: 59 → 9992</title></circle>
<line x1="848" y1="68" x2="870" y2="68" stroke="#c99700" stroke-width="2"/>
<text x="876" y="72" fill="#1f2328">ops/s</text>
<path d="M84.0,395.7 L96.6,397.3 L109.3,399.4 L121.9,395.8 L134.6,395.9 L147.2,396.7 L159.9,395.7 L172.5,399.2 L185.2,399.5 L197.8,398.2 L210.4,396.1 L223.1,395.9 L235.7,399.3 L248.4,397.7 L261.0,396.2 L273.7,399.2 L286.3,395.9 L298.9,396.3 L311.6,395.9 L324.2,399.3 L336.9,396.0 L349.5,399.3 L362.2,399.2 L374.8,392.7 L387.5,395.8 L400.1,397.4 L412.7,399.4 L425.4,399.4 L438.0,395.9 L450.7,396.3 L463.3,399.5 L476.0,395.9 L488.6,395.9 L501.3,398.6 L513.9,396.0 L526.5,396.3 L539.2,392.5 L551.8,395.9 L564.5,396.0 L577.1,396.0 L589.8,395.8 L602.4,396.0 L615.1,399.6 L627.7,395.6 L640.3,395.8 L653.0,395.7 L665.6,392.4 L678.3,397.9 L690.9,392.2 L703.6,395.6 L716.2,392.0 L728.8,395.8 L741.5,395.9 L754.1,396.0 L766.8,396.0 L779.4,392.5 L792.1,395.8 L804.7,396.0 L817.4,395.7 L830.0,402.6" fill="none" stroke="#0969da" stroke-width="2" stroke-dasharray="6 4"/>
<circle cx="84.0" cy="395.7" r="3" fill="#0969da"><title>p99 ms: 0 → 569.106</title></circle>
<circle cx="96.6" cy="397.3" r="3" fill="#0969da"><title>p99 ms: 1 → 524.354</title></circle>
<circle cx="109.3" cy="399.4" r="3" fill="#0969da"><title>p99 ms: 2 → 465.266</title></circle>
<circle cx="121.9" cy="395.8" r="3" fill="#0969da"><title>p99 ms: 3 → 567.633</title></circle>
<circle cx="134.6" cy="395.9" r="3" fill="#0969da"><title>p99 ms: 4 → 564.395</title></circle>
<circle cx="147.2" cy="396.7" r="3" fill="#0969da"><title>p99 ms: 5 → 543.442</title></circle>
<circle cx="159.9" cy="395.7" r="3" fill="#0969da"><title>p99 ms: 6 → 570.27</title></circle>
<circle cx="172.5" cy="399.2" r="3" fill="#0969da"><title>p99 ms: 7 → 471.037</title></circle>
<circle cx="185.2" cy="399.5" r="3" fill="#0969da"><title>p99 ms: 8 → 463.424</title></circle>
<circle cx="197.8" cy="398.2" r="3" fill="#0969da"><title>p99 ms: 9 → 501.289</title></circle>
<circle cx="210.4" cy="396.1" r="3" fill="#0969da"><title>p99 ms: 10 → 557.745</title></circle>
<circle cx="223.1" cy="395.9" r="3" fill="#0969da"><title>p99 ms: 11 → 564.319</title></circle>
<circle cx="235.7" cy="399.3" r="3" fill="#0969da"><title>p99 ms: 12 → 467.921</title></circle>
<circle cx="248.4" cy="397.7" r="3" fill="#0969da"><title>p99 ms: 13 → 512.918</title></circle>
<circle cx="261.0" cy="396.2" r="3" fill="#0969da"><title>p99 ms: 14 → 556.092</title></circle>
<circle cx="273.7" cy="399.2" r="3" fill="#0969da"><title>p99 ms: 15 → 470.991</title></circle>
<circle cx="286.3" cy="395.9" r="3" fill="#0969da"><title>p99 ms: 16 → 564.158</title></circle>
<circle cx="298.9" cy="396.3" r="3" fill="#0969da"><title>p99 ms: 17 → 553.633</title></circle>
<circle cx="311.6" cy="395.9" r="3" fill="#0969da"><title>p99 ms: 18 → 565.736</title></circle>
<circle cx="324.2" cy="399.3" r="3" fill="#0969da"><title>p99 ms: 19 → 467.914</title></circle>
<circle cx="336.9" cy="396.0" r="3" fill="#0969da"><title>p99 ms: 20 → 562.516</title></circle>
<circle cx="349.5" cy="399.3" r="3" fill="#0969da"><title>p99 ms: 21 → 467.829</title></circle>
<circle cx="362.2" cy="399.2" r="3" fill="#0969da"><title>p99 ms: 22 → 470.674</title></circle>
<circle cx="374.8" cy="392.7" r="3" fill="#0969da"><title>p99 ms: 23 → 654.282</title></circle>
<circle cx="387.5" cy="395.8" r="3" fill="#0969da"><title>p99 ms: 24 → 566.324</title></circle>
<circle cx="400.1" cy="397.4" r="3" fill="#0969da"><title>p99 ms: 25 → 523.35</title></circle>
<circle cx="412.7" cy="399.4" r="3" fill="#0969da"><title>p99 ms: 26 → 466.722</title></circle>
<circle cx="425.4" cy="399.4" r="3" fill="#0969da"><title>p99 ms: 27 → 466.616</title></circle>
<circle cx="438.0" cy="395.9" r="3" fill="#0969da"><title>p99 ms: 28 → 563.394</title></circle>
<circle cx="450.7" cy="396.3" r="3" fill="#0969da"><title>p99 ms: 29 → 553.496</title></circle>
<circle cx="463.3" cy="399.5" r="3" fill="#0969da"><title>p99 ms: 30 → 464.551</title></circle>
<circle cx="476.0" cy="395.9" r="3" fill="#0969da"><title>p99 ms: 31 → 565.65</title></circle>
<circle cx="488.6" cy="395.9" r="3" fill="#0969da"><title>p99 ms: 32 → 564.102</title></circle>
<circle cx="501.3" cy="398.6" r="3" fill="#0969da"><title>p99 ms: 33 → 489</title></circle>
<circle cx="513.9" cy="396.0" r="3" fill="#0969da"><title>p99 ms: 34 → 561.331</title></circle>
<circle cx="526.5" cy="396.3" r="3" fill="#0969da"><title>p99 ms: 35 → 552.887</title></circle>
<circle cx="539.2" cy="392.5" r="3" fill="#0969da"><title>p99 ms: 36 → 661.445</title></circle>
<circle cx="551.8" cy="395.9" r="3" fill="#0969da"><title>p99 ms: 37 → 563.469</title></circle>
<circle cx="564.5" cy="396.0" r="3" fill="#0969da"><title>p99 ms: 38 → 561.971</title></circle>
<circle cx="577.1" cy="396.0" r="3" fill="#0969da"><title>p99 ms: 39 → 560.954</title></circle>
<circle cx="589.8" cy="395.8" r="3" fill="#0969da"><title>p99 ms: 40 → 567.709</title></circle>
<circle cx="602.4" cy="396.0" r="3" fill="#0969da"><title>p99 ms: 41 → 562.729</title></circle>
<circle cx="615.1" cy="399.6" r="3" fill="#0969da"><title>p99 ms: 42 → 461.251</title></circle>
<circle cx="627.7" cy="395.6" r="3" fill="#0969da"><title>p99 ms: 43 → 572.506</title></circle>
<circle cx="640.3" cy="395.8" r="3" fill="#0969da"><title>p99 ms: 44 → 566.65</title></circle>
<circle cx="653.0" cy="395.7" r="3" fill="#0969da"><title>p99 ms: 45 → 571.287</title></circle>
<circle cx="665.6" cy="392.4" r="3" fill="#0969da"><title>p99 ms: 46 → 664.205</title></circle>
<circle cx="678.3" cy="397.9" r="3" fill="#0969da"><title>p99 ms: 47 → 507.119</title></circle>
<circle cx="690.9" cy="392.2" r="3" fill="#0969da"><title>p99 ms: 48 → 667.363</title></circle>
<circle cx="703.6" cy="395.6" r="3" fill="#0969da"><title>p99 ms: 49 → 571.801</title></circle>
<circle cx="716.2" cy="392.0" r="3" fill="#0969da"><title>p99 ms: 50 → 675.47</title></circle>
<circle cx="728.8" cy="395.8" r="3" fill="#0969da"><title>p99 ms: 51 → 567.891</title></circle>
<circle cx="741.5" cy="395.9" r="3" fill="#0969da"><title>p99 ms: 52 → 564.776</title></circle>
<circle cx="754.1" cy="396.0" r="3" fill="#0969da"><title>p99 ms: 53 → 560.845</title></circle>
<circle cx="766.8" cy="396.0" r="3" fill="#0969da"><title>p99 ms: 54 → 562.974</title></circle>
<circle cx="779.4" cy="392.5" r="3" fill="#0969da"><title>p99 ms: 55 → 660.031</title></circle>
<circle cx="792.1" cy="395.8" r="3" fill="#0969da"><title>p99 ms: 56 → 566.686</title></circle>
<circle cx="804.7" cy="396.0" r="3" fill="#0969da"><title>p99 ms: 57 → 561.573</title></circle>
<circle cx="817.4" cy="395.7" r="3" fill="#0969da"><title>p99 ms: 58 → 570.651</title></circle>
<circle cx="830.0" cy="402.6" r="3" fill="#0969da"><title>p99 ms: 59 → 375.506</title></circle>
<line x1="848" y1="84" x2="870" y2="84" stroke="#0969da" stroke-width="2" stroke-dasharray="6 4"/>
<text x="876" y="88" fill="#1f2328">p99 ms</text>
</svg>